<svg width="344" height="39" viewBox="0 0 344 39" fill="none" xmlns="http://www.w3.org/2000/svg">
<path d="M5.17969 20.1562C1.98438 20.1562 0.679688 17.6562 0.679688 14.7344C0.679688 11.8125 1.96094 9.23438 5.17969 9.23438C8.44531 9.23438 9.67969 11.9219 9.67969 14.7344C9.67969 17.6562 8.38281 20.1562 5.17969 20.1562ZM2.76562 14.6953C2.76562 16.5703 3.45312 18.2656 5.17969 18.2656C6.92188 18.2656 7.59375 16.5078 7.59375 14.6953C7.59375 12.8125 6.91406 11.125 5.17969 11.125C3.44531 11.125 2.76562 12.875 2.76562 14.6953ZM20.5334 9.73438L20.3694 11.5703C19.6116 11.2031 18.7913 11.0469 17.9944 11.0469C16.3928 11.0547 15.0178 11.8672 14.9397 14.0469C15.5022 13.3516 16.4006 13.0078 17.4319 13.0078C19.3459 13.0078 21.1819 13.9688 21.1819 16.4453C21.1819 18.7969 19.4788 20.1562 17.0178 20.1562C13.9866 20.1562 12.7991 17.8906 12.7991 15.1484C12.7991 11.5469 14.4475 9.23438 17.8303 9.23438C18.9475 9.23438 19.7756 9.40625 20.5334 9.73438ZM17.0725 18.3594C18.2366 18.3594 19.0647 17.625 19.0647 16.5156C19.0647 15.375 18.26 14.6953 17.0725 14.6953C15.8928 14.6953 15.135 15.5312 15.135 16.5C15.135 17.5 15.9006 18.3594 17.0725 18.3594ZM24.145 19.0078C24.145 18.3672 24.645 17.8594 25.3013 17.8594C25.9575 17.8594 26.4653 18.3672 26.4653 19.0078C26.4653 19.6562 25.9575 20.1562 25.3013 20.1562C24.645 20.1562 24.145 19.6562 24.145 19.0078Z" fill="black"/>
<path d="M29.1328 9.39062H33.7031C37.125 9.39062 39.0625 11.4219 39.0625 14.6875C39.0625 17.9766 37.0859 20 33.7031 20H29.1328V9.39062ZM33.4766 18.1797C35.875 18.1797 36.8984 16.8906 36.8984 14.6875C36.8984 12.4688 35.8516 11.2109 33.4766 11.2109H31.2422V18.1797H33.4766ZM44.6897 9.39062V20H42.5803V9.39062H44.6897ZM53.0356 17.8359L56.0825 9.39062H58.3403L54.3638 20H51.7075L47.7153 9.39062H49.9731L53.0356 17.8359ZM69.3425 18.1797V20H61.3659V9.39062H69.2253V11.2188H63.4753V13.6641H68.5066V15.4922H63.4753V18.1797H69.3425ZM79.8056 19.9922L77.3759 16.875H74.9228V20H72.8134V9.39062H77.7353C79.8759 9.39062 81.6103 10.75 81.6103 13.1406C81.6103 14.6797 80.7509 15.8906 79.54 16.4766L82.3525 19.9922H79.8056ZM77.4931 11.2188H74.9228V15.0547H77.4931C78.6181 15.0547 79.4384 14.2812 79.4384 13.1484C79.4384 11.9141 78.6025 11.2188 77.4931 11.2188ZM87.6594 20V11.2656H84.3391V9.39062H93.0734V11.2656H89.7609V20H87.6594ZM104.138 18.1797V20H96.1616V9.39062H104.021V11.2188H98.2709V13.6641H103.302V15.4922H98.2709V18.1797H104.138ZM114.601 19.9922L112.172 16.875H109.718V20H107.609V9.39062H112.531C114.672 9.39062 116.406 10.75 116.406 13.1406C116.406 14.6797 115.547 15.8906 114.336 16.4766L117.148 19.9922H114.601ZM112.289 11.2188H109.718V15.0547H112.289C113.414 15.0547 114.234 14.2812 114.234 13.1484C114.234 11.9141 113.398 11.2188 112.289 11.2188ZM127.613 20L124.707 9.39062H126.824L129.176 17.8984L131.559 9.55469H133.457L135.84 17.8984L138.192 9.39062H140.309L137.402 20H134.449L132.504 13.1641L130.567 20H127.613ZM152.819 9.39062V20H150.717V15.5H145.545V20H143.436V9.39062H145.545V13.6797H150.717V9.39062H152.819ZM164.829 18.1797V20H156.852V9.39062H164.712V11.2188H158.962V13.6641H163.993V15.4922H158.962V18.1797H164.829ZM176.276 18.1797V20H168.3V9.39062H176.159V11.2188H170.409V13.6641H175.44V15.4922H170.409V18.1797H176.276ZM187.568 18.1797V20H179.747V9.39062H181.857V18.1797H187.568ZM194.187 9.23438C195.671 9.23438 196.742 9.52344 197.585 9.89844L197.406 11.7734C196.851 11.4453 195.476 11.0938 194.335 11.0938C193.187 11.0938 192.367 11.4453 192.367 12.3203C192.367 13.2031 193.117 13.3594 193.843 13.5781L195.374 14.0312C197.124 14.5469 198.124 15.2969 198.124 16.9219C198.124 18.8047 196.523 20.1562 194.101 20.1562C192.601 20.1562 190.906 19.7812 190.171 19.375L190.343 17.4922C190.867 17.8203 192.593 18.2812 193.913 18.2812C195.031 18.2812 195.921 17.8906 195.921 17.0234C195.921 16.3516 195.523 16.0547 194.624 15.8125L192.945 15.3594C191.593 14.9922 190.171 14.2578 190.171 12.4922C190.171 10.5312 191.71 9.23438 194.187 9.23438Z" fill="black"/>
<line x1="210" y1="15.5" x2="309" y2="15.5" stroke="#0F3B68" stroke-dasharray="2 2"/>
<path d="M325.309 23H321.793L328.074 9.95703H320.797V7.08594H331.578V9.52344L325.309 23ZM337.027 23H333.512L339.793 9.95703H332.516V7.08594H343.297V9.52344L337.027 23Z" fill="#122C4C"/>
<path d="M36.755 26.615L37.44 27.105C37.06 27.495 36.7417 27.895 36.485 28.305C36.2317 28.7117 36.04 29.13 35.91 29.56C35.7833 29.99 35.72 30.4317 35.72 30.885C35.72 31.5583 35.8633 32.2083 36.15 32.835C36.4367 33.4583 36.8667 34.0633 37.44 34.65L36.755 35.155C36.0783 34.5417 35.5717 33.8717 35.235 33.145C34.8983 32.4183 34.73 31.665 34.73 30.885C34.73 30.095 34.8983 29.3383 35.235 28.615C35.5717 27.8883 36.0783 27.2217 36.755 26.615ZM38.4052 34L38.4052 27.63L42.4052 27.63L42.4052 28.45L39.3552 28.45L39.3552 30.39L42.2252 30.39L42.2252 31.21L39.3552 31.21L39.3552 33.17L42.4052 33.17L42.4052 34L38.4052 34ZM44.7879 27.63L44.7879 33.17L47.5329 33.17L47.5329 34L43.8379 34L43.8379 27.63L44.7879 27.63ZM48.313 34L48.313 27.63L52.313 27.63L52.313 28.45L49.263 28.45L49.263 30.39L52.133 30.39L52.133 31.21L49.263 31.21L49.263 33.17L52.313 33.17L52.313 34L48.313 34ZM55.6107 32.975L57.3857 27.63L58.3907 27.63L56.1557 34L55.1607 34L52.9507 27.63L53.9607 27.63L55.7207 32.975L55.6107 32.975ZM58.1454 34L60.3254 27.63L61.5004 27.63L63.6154 34L62.6154 34L62.1204 32.48L59.6604 32.48L59.1454 34L58.1454 34ZM59.9004 31.75L61.8854 31.75L60.8954 28.775L59.9004 31.75ZM63.1877 28.45L63.1877 27.63L68.2077 27.63L68.2077 28.45L65.9577 28.45L66.1727 28.23L66.1727 34L65.2227 34L65.2227 28.23L65.4327 28.45L63.1877 28.45ZM71.2695 34.13C70.7261 34.13 70.2428 34.0067 69.8195 33.76C69.3961 33.5133 69.0628 33.145 68.8195 32.655C68.5795 32.165 68.4595 31.5533 68.4595 30.82C68.4595 30.0733 68.5795 29.4567 68.8195 28.97C69.0628 28.48 69.3961 28.115 69.8195 27.875C70.2428 27.635 70.7261 27.515 71.2695 27.515C71.8161 27.515 72.3011 27.6367 72.7245 27.88C73.1511 28.1233 73.4845 28.4917 73.7245 28.985C73.9678 29.475 74.0895 30.0867 74.0895 30.82C74.0895 31.56 73.9678 32.1767 73.7245 32.67C73.4845 33.16 73.1511 33.5267 72.7245 33.77C72.3011 34.01 71.8161 34.13 71.2695 34.13ZM71.2695 33.26C71.8361 33.26 72.2828 33.0517 72.6095 32.635C72.9395 32.2183 73.1045 31.61 73.1045 30.81C73.1045 30.03 72.9395 29.4283 72.6095 29.005C72.2828 28.5783 71.8361 28.365 71.2695 28.365C70.7128 28.365 70.2695 28.5783 69.9395 29.005C69.6095 29.4317 69.4445 30.0367 69.4445 30.82C69.4445 31.6133 69.6095 32.2183 69.9395 32.635C70.2695 33.0517 70.7128 33.26 71.2695 33.26ZM75.2508 34L75.2508 27.63L77.5308 27.63C78.2741 27.63 78.8391 27.8067 79.2258 28.16C79.6158 28.51 79.8108 28.9717 79.8108 29.545C79.8108 30.1117 79.6158 30.57 79.2258 30.92C78.8391 31.27 78.2741 31.445 77.5308 31.445L76.2008 31.445L76.2008 34L75.2508 34ZM78.7658 34L77.0008 31.07L78.0258 31.07L80.0008 34L78.7658 34ZM76.2008 30.795L77.4458 30.795C77.8991 30.795 78.2441 30.6867 78.4808 30.47C78.7174 30.25 78.8358 29.9667 78.8358 29.62C78.8358 29.2633 78.7241 28.98 78.5008 28.77C78.2808 28.5567 77.9574 28.45 77.5308 28.45L76.2008 28.45L76.2008 30.795ZM89.802 34.13C89.522 34.13 89.2586 34.0683 89.012 33.945C88.7653 33.8217 88.5003 33.6317 88.217 33.375L84.987 30.495C84.757 30.295 84.5736 30.0717 84.437 29.825C84.3036 29.575 84.237 29.315 84.237 29.045C84.237 28.755 84.317 28.4967 84.477 28.27C84.6403 28.04 84.8753 27.8583 85.182 27.725C85.4886 27.5917 85.8553 27.525 86.282 27.525C86.6886 27.525 87.0386 27.5917 87.332 27.725C87.6286 27.8583 87.857 28.0383 88.017 28.265C88.1803 28.4917 88.262 28.745 88.262 29.025C88.262 29.3017 88.1953 29.555 88.062 29.785C87.9286 30.0117 87.722 30.22 87.442 30.41C87.1653 30.5967 86.8086 30.7717 86.372 30.935L85.862 30.45C86.2053 30.3067 86.4736 30.1667 86.667 30.03C86.8636 29.89 87.0036 29.7467 87.087 29.6C87.1703 29.45 87.212 29.2883 87.212 29.115C87.212 28.8917 87.127 28.7067 86.957 28.56C86.787 28.4133 86.562 28.34 86.282 28.34C85.952 28.34 85.702 28.4233 85.532 28.59C85.362 28.7533 85.277 28.95 85.277 29.18C85.277 29.35 85.3186 29.5117 85.402 29.665C85.4853 29.815 85.617 29.9717 85.797 30.135L88.977 32.965C89.107 33.075 89.2253 33.1567 89.332 33.21C89.4386 33.2633 89.5686 33.29 89.722 33.29C89.8853 33.29 90.0286 33.2283 90.152 33.105C90.2753 32.9817 90.3453 32.7817 90.362 32.505L91.237 32.505C91.2203 33.0083 91.092 33.405 90.852 33.695C90.6153 33.985 90.2653 34.13 89.802 34.13ZM85.832 34.13C85.472 34.13 85.137 34.0817 84.827 33.985C84.5203 33.885 84.2503 33.7483 84.017 33.575C83.7836 33.4017 83.602 33.2 83.472 32.97C83.342 32.7367 83.277 32.485 83.277 32.215C83.277 31.7017 83.482 31.315 83.892 31.055C84.3053 30.795 84.8903 30.6333 85.647 30.57L85.922 31.105C85.3686 31.1583 84.9636 31.2733 84.707 31.45C84.4503 31.6233 84.322 31.8617 84.322 32.165C84.322 32.3683 84.3803 32.5533 84.497 32.72C84.617 32.8867 84.7903 33.02 85.017 33.12C85.2436 33.22 85.5186 33.27 85.842 33.27C86.2353 33.27 86.597 33.19 86.927 33.03C87.257 32.87 87.5586 32.65 87.832 32.37C88.1053 32.0867 88.3503 31.7567 88.567 31.38C88.7836 31.0033 88.972 30.5983 89.132 30.165L89.782 30.525C89.612 31.045 89.4003 31.5233 89.147 31.96C88.897 32.3967 88.607 32.7783 88.277 33.105C87.947 33.4283 87.5786 33.68 87.172 33.86C86.7653 34.04 86.3186 34.13 85.832 34.13ZM96.8088 34.13C96.2455 34.13 95.7588 33.9933 95.3488 33.72C94.9422 33.4433 94.6272 33.055 94.4038 32.555C94.1805 32.0517 94.0688 31.4617 94.0688 30.785C94.0688 30.0717 94.1872 29.4733 94.4238 28.99C94.6605 28.5033 94.9855 28.1367 95.3988 27.89C95.8155 27.64 96.2855 27.515 96.8088 27.515C97.5122 27.515 98.0722 27.69 98.4888 28.04C98.9055 28.3867 99.1822 28.8383 99.3188 29.395L98.3038 29.59C98.1838 29.22 97.9938 28.925 97.7338 28.705C97.4738 28.4817 97.1655 28.37 96.8088 28.37C96.4955 28.37 96.2088 28.46 95.9488 28.64C95.6888 28.82 95.4805 29.09 95.3238 29.45C95.1672 29.8067 95.0888 30.2517 95.0888 30.785C95.0888 31.2783 95.1538 31.7117 95.2838 32.085C95.4138 32.455 95.6055 32.7433 95.8588 32.95C96.1122 33.1567 96.4288 33.26 96.8088 33.26C97.2722 33.26 97.6372 33.1367 97.9038 32.89C98.1705 32.64 98.3038 32.315 98.3038 31.915L99.3288 31.915C99.3288 32.3817 99.2238 32.78 99.0138 33.11C98.8072 33.4367 98.5155 33.6883 98.1388 33.865C97.7622 34.0417 97.3188 34.13 96.8088 34.13ZM99.7298 34L101.91 27.63L103.085 27.63L105.2 34L104.2 34L103.705 32.48L101.245 32.48L100.73 34L99.7298 34ZM101.485 31.75L103.47 31.75L102.48 28.775L101.485 31.75ZM106.117 34L106.117 27.63L108.397 27.63C109.14 27.63 109.705 27.8067 110.092 28.16C110.482 28.51 110.677 28.9717 110.677 29.545C110.677 30.1117 110.482 30.57 110.092 30.92C109.705 31.27 109.14 31.445 108.397 31.445L107.067 31.445L107.067 34L106.117 34ZM109.632 34L107.867 31.07L108.892 31.07L110.867 34L109.632 34ZM107.067 30.795L108.312 30.795C108.765 30.795 109.11 30.6867 109.347 30.47C109.583 30.25 109.702 29.9667 109.702 29.62C109.702 29.2633 109.59 28.98 109.367 28.77C109.147 28.5567 108.823 28.45 108.397 28.45L107.067 28.45L107.067 30.795ZM114.193 34L114.193 27.63L116.328 27.63C117.038 27.63 117.585 27.8067 117.968 28.16C118.351 28.5133 118.543 29.0017 118.543 29.625C118.543 30.2417 118.351 30.7267 117.968 31.08C117.585 31.43 117.038 31.605 116.328 31.605L115.153 31.605L115.153 34L114.193 34ZM115.153 30.775L116.328 30.775C116.735 30.775 117.043 30.67 117.253 30.46C117.463 30.25 117.568 29.9717 117.568 29.625C117.568 29.275 117.463 28.9917 117.253 28.775C117.043 28.5583 116.735 28.45 116.328 28.45L115.153 28.45L115.153 30.775ZM118.442 34L120.622 27.63L121.797 27.63L123.912 34L122.912 34L122.417 32.48L119.957 32.48L119.442 34L118.442 34ZM120.197 31.75L122.182 31.75L121.192 28.775L120.197 31.75ZM124.829 34L124.829 27.63L127.109 27.63C127.852 27.63 128.417 27.8067 128.804 28.16C129.194 28.51 129.389 28.9717 129.389 29.545C129.389 30.1117 129.194 30.57 128.804 30.92C128.417 31.27 127.852 31.445 127.109 31.445L125.779 31.445L125.779 34L124.829 34ZM128.344 34L126.579 31.07L127.604 31.07L129.579 34L128.344 34ZM125.779 30.795L127.024 30.795C127.477 30.795 127.822 30.6867 128.059 30.47C128.296 30.25 128.414 29.9667 128.414 29.62C128.414 29.2633 128.302 28.98 128.079 28.77C127.859 28.5567 127.536 28.45 127.109 28.45L125.779 28.45L125.779 30.795ZM134.459 27.63L135.769 27.63L131.644 31.865L131.644 30.55L134.459 27.63ZM132.814 30.295L135.944 34L134.709 34L132.144 30.915L132.814 30.295ZM130.789 27.63L131.749 27.63L131.749 34L130.789 34L130.789 27.63ZM136.768 34L136.768 27.63L137.718 27.63L137.718 34L136.768 34ZM139.353 27.63L140.438 27.63L143.523 32.57L143.448 32.57L143.448 27.63L144.398 27.63L144.398 34L143.388 34L140.153 28.84L140.303 28.84L140.303 34L139.353 34L139.353 27.63ZM148.331 34.13C147.817 34.13 147.352 33.9967 146.936 33.73C146.519 33.46 146.187 33.0817 145.941 32.595C145.694 32.105 145.571 31.53 145.571 30.87C145.571 30.3333 145.647 29.8567 145.801 29.44C145.957 29.0233 146.172 28.6717 146.446 28.385C146.722 28.0983 147.042 27.8817 147.406 27.735C147.769 27.5883 148.157 27.515 148.571 27.515C149.111 27.515 149.574 27.6283 149.961 27.855C150.347 28.0817 150.666 28.4417 150.916 28.935L149.976 29.205C149.776 28.9283 149.556 28.7217 149.316 28.585C149.076 28.445 148.812 28.375 148.526 28.375C148.176 28.375 147.852 28.4767 147.556 28.68C147.262 28.88 147.027 29.1667 146.851 29.54C146.674 29.91 146.586 30.3533 146.586 30.87C146.586 31.34 146.659 31.755 146.806 32.115C146.956 32.4717 147.166 32.7517 147.436 32.955C147.709 33.155 148.031 33.255 148.401 33.255C148.694 33.255 148.957 33.1883 149.191 33.055C149.424 32.9217 149.607 32.725 149.741 32.465C149.877 32.2017 149.946 31.8767 149.946 31.49L150.196 31.49C150.196 32.0267 150.131 32.4933 150.001 32.89C149.874 33.2833 149.674 33.5883 149.401 33.805C149.127 34.0217 148.771 34.13 148.331 34.13ZM150.096 34L149.946 32.54L149.946 31.46L148.416 31.42L148.416 30.795L150.866 30.795L150.866 34L150.096 34ZM153.744 34L155.924 27.63L157.099 27.63L159.214 34L158.214 34L157.719 32.48L155.259 32.48L154.744 34L153.744 34ZM155.499 31.75L157.484 31.75L156.494 28.775L155.499 31.75ZM160.106 34L160.106 27.63L162.241 27.63C162.951 27.63 163.498 27.8067 163.881 28.16C164.265 28.5133 164.456 29.0017 164.456 29.625C164.456 30.2417 164.265 30.7267 163.881 31.08C163.498 31.43 162.951 31.605 162.241 31.605L161.066 31.605L161.066 34L160.106 34ZM161.066 30.775L162.241 30.775C162.648 30.775 162.956 30.67 163.166 30.46C163.376 30.25 163.481 29.9717 163.481 29.625C163.481 29.275 163.376 28.9917 163.166 28.775C162.956 28.5583 162.648 28.45 162.241 28.45L161.066 28.45L161.066 30.775ZM165.461 34L165.461 27.63L167.596 27.63C168.306 27.63 168.852 27.8067 169.236 28.16C169.619 28.5133 169.811 29.0017 169.811 29.625C169.811 30.2417 169.619 30.7267 169.236 31.08C168.852 31.43 168.306 31.605 167.596 31.605L166.421 31.605L166.421 34L165.461 34ZM166.421 30.775L167.596 30.775C168.002 30.775 168.311 30.67 168.521 30.46C168.731 30.25 168.836 29.9717 168.836 29.625C168.836 29.275 168.731 28.9917 168.521 28.775C168.311 28.5583 168.002 28.45 167.596 28.45L166.421 28.45L166.421 30.775ZM171.79 27.63L171.79 33.17L174.535 33.17L174.535 34L170.84 34L170.84 27.63L171.79 27.63ZM175.325 34L175.325 27.63L176.275 27.63L176.275 34L175.325 34ZM180.185 34.13C179.622 34.13 179.135 33.9933 178.725 33.72C178.319 33.4433 178.004 33.055 177.78 32.555C177.557 32.0517 177.445 31.4617 177.445 30.785C177.445 30.0717 177.564 29.4733 177.8 28.99C178.037 28.5033 178.362 28.1367 178.775 27.89C179.192 27.64 179.662 27.515 180.185 27.515C180.889 27.515 181.449 27.69 181.865 28.04C182.282 28.3867 182.559 28.8383 182.695 29.395L181.68 29.59C181.56 29.22 181.37 28.925 181.11 28.705C180.85 28.4817 180.542 28.37 180.185 28.37C179.872 28.37 179.585 28.46 179.325 28.64C179.065 28.82 178.857 29.09 178.7 29.45C178.544 29.8067 178.465 30.2517 178.465 30.785C178.465 31.2783 178.53 31.7117 178.66 32.085C178.79 32.455 178.982 32.7433 179.235 32.95C179.489 33.1567 179.805 33.26 180.185 33.26C180.649 33.26 181.014 33.1367 181.28 32.89C181.547 32.64 181.68 32.315 181.68 31.915L182.705 31.915C182.705 32.3817 182.6 32.78 182.39 33.11C182.184 33.4367 181.892 33.6883 181.515 33.865C181.139 34.0417 180.695 34.13 180.185 34.13ZM183.106 34L185.286 27.63L186.461 27.63L188.576 34L187.576 34L187.081 32.48L184.621 32.48L184.106 34L183.106 34ZM184.861 31.75L186.846 31.75L185.856 28.775L184.861 31.75ZM188.149 28.45L188.149 27.63L193.169 27.63L193.169 28.45L190.919 28.45L191.134 28.23L191.134 34L190.184 34L190.184 28.23L190.394 28.45L188.149 28.45ZM193.9 34L193.9 27.63L194.85 27.63L194.85 34L193.9 34ZM198.831 34.13C198.287 34.13 197.804 34.0067 197.381 33.76C196.957 33.5133 196.624 33.145 196.381 32.655C196.141 32.165 196.021 31.5533 196.021 30.82C196.021 30.0733 196.141 29.4567 196.381 28.97C196.624 28.48 196.957 28.115 197.381 27.875C197.804 27.635 198.287 27.515 198.831 27.515C199.377 27.515 199.862 27.6367 200.286 27.88C200.712 28.1233 201.046 28.4917 201.286 28.985C201.529 29.475 201.651 30.0867 201.651 30.82C201.651 31.56 201.529 32.1767 201.286 32.67C201.046 33.16 200.712 33.5267 200.286 33.77C199.862 34.01 199.377 34.13 198.831 34.13ZM198.831 33.26C199.397 33.26 199.844 33.0517 200.171 32.635C200.501 32.2183 200.666 31.61 200.666 30.81C200.666 30.03 200.501 29.4283 200.171 29.005C199.844 28.5783 199.397 28.365 198.831 28.365C198.274 28.365 197.831 28.5783 197.501 29.005C197.171 29.4317 197.006 30.0367 197.006 30.82C197.006 31.6133 197.171 32.2183 197.501 32.635C197.831 33.0517 198.274 33.26 198.831 33.26ZM202.797 27.63L203.882 27.63L206.967 32.57L206.892 32.57L206.892 27.63L207.842 27.63L207.842 34L206.832 34L203.597 28.84L203.747 28.84L203.747 34L202.797 34L202.797 27.63ZM211.615 34.13C211.181 34.13 210.783 34.0533 210.42 33.9C210.056 33.7433 209.763 33.5117 209.54 33.205C209.32 32.8983 209.205 32.515 209.195 32.055L210.125 32.055C210.125 32.3317 210.191 32.5583 210.325 32.735C210.461 32.9117 210.641 33.0433 210.865 33.13C211.088 33.2133 211.335 33.255 211.605 33.255C211.878 33.255 212.12 33.2133 212.33 33.13C212.54 33.0467 212.701 32.935 212.815 32.795C212.931 32.655 212.99 32.495 212.99 32.315C212.99 32.0717 212.915 31.8767 212.765 31.73C212.615 31.58 212.386 31.4533 212.08 31.35L210.895 30.91C210.385 30.72 209.996 30.5017 209.73 30.255C209.463 30.005 209.33 29.6583 209.33 29.215C209.33 28.7117 209.526 28.3033 209.92 27.99C210.313 27.6733 210.866 27.515 211.58 27.515C212.256 27.515 212.781 27.6717 213.155 27.985C213.531 28.2983 213.746 28.725 213.8 29.265L212.865 29.265C212.818 28.9917 212.69 28.775 212.48 28.615C212.273 28.455 211.973 28.375 211.58 28.375C211.2 28.375 210.903 28.4583 210.69 28.625C210.476 28.7883 210.37 28.995 210.37 29.245C210.37 29.4517 210.436 29.6167 210.57 29.74C210.706 29.8633 210.918 29.975 211.205 30.075L212.555 30.57C213.018 30.7333 213.38 30.9533 213.64 31.23C213.9 31.5067 214.03 31.8583 214.03 32.285C214.03 32.645 213.936 32.9633 213.75 33.24C213.563 33.5167 213.29 33.735 212.93 33.895C212.57 34.0517 212.131 34.13 211.615 34.13ZM215.391 35.155L214.696 34.65C215.27 34.0633 215.701 33.4583 215.991 32.835C216.281 32.2083 216.426 31.5583 216.426 30.885C216.426 30.4317 216.361 29.99 216.231 29.56C216.105 29.13 215.913 28.7117 215.656 28.305C215.4 27.895 215.08 27.495 214.696 27.105L215.391 26.615C216.065 27.2217 216.57 27.8883 216.906 28.615C217.246 29.3383 217.416 30.095 217.416 30.885C217.416 31.4083 217.341 31.92 217.191 32.42C217.041 32.9167 216.816 33.395 216.516 33.855C216.216 34.315 215.841 34.7483 215.391 35.155Z" fill="black"/>
</svg>
