<svg width="310" height="18" viewBox="0 0 310 18" fill="none" xmlns="http://www.w3.org/2000/svg">
<line x1="128" y1="10.5" x2="279" y2="10.5" stroke="#0F3B68" stroke-dasharray="2 2"/>
<path d="M299.702 9.41602C299.702 11.373 298.237 12.123 296.473 12.123C295.559 12.123 294.645 11.9238 293.942 11.6016L294.147 10.2422C294.756 10.5469 295.553 10.7285 296.303 10.7285C297.311 10.7285 298.026 10.3887 298.026 9.49219C298.026 8.53711 297.241 8.18555 296.163 8.18555C295.577 8.18555 294.991 8.26172 294.528 8.40234L294.258 8.13867L294.751 4.04297H299.333V5.43164H295.987L295.823 6.97852C296.034 6.93164 296.315 6.91406 296.585 6.91406C298.266 6.91406 299.702 7.72266 299.702 9.41602ZM301.14 11.7422L301.269 10.3711C301.831 10.6465 302.447 10.7637 303.05 10.7637C304.246 10.7637 305.283 10.1484 305.335 8.51367C304.919 9.03516 304.24 9.28711 303.472 9.28711C302.031 9.28711 300.66 8.56641 300.66 6.70898C300.66 4.95117 301.937 3.92578 303.777 3.92578C306.056 3.92578 306.947 5.625 306.947 7.68164C306.947 10.3828 305.71 12.1172 303.167 12.1172C302.33 12.1172 301.708 11.9941 301.14 11.7422ZM303.742 5.2793C302.863 5.2793 302.247 5.83008 302.247 6.66211C302.247 7.51172 302.851 8.02734 303.736 8.02734C304.621 8.02734 305.189 7.40039 305.189 6.66797C305.189 5.92383 304.615 5.2793 303.742 5.2793Z" fill="#122C4C"/>
<path d="M3.04 13.13C2.71333 13.13 2.39833 13.085 2.095 12.995C1.79167 12.9017 1.51833 12.7683 1.275 12.595C1.035 12.4183 0.845 12.2 0.705 11.94C0.565 11.6767 0.495 11.3733 0.495 11.03L1.485 11.03C1.495 11.29 1.56833 11.5117 1.705 11.695C1.84167 11.8783 2.025 12.0183 2.255 12.115C2.485 12.2083 2.74667 12.255 3.04 12.255C3.48 12.255 3.82167 12.15 4.065 11.94C4.31167 11.73 4.435 11.4667 4.435 11.15C4.435 10.9467 4.38333 10.7683 4.28 10.615C4.18 10.4617 4.02167 10.3433 3.805 10.26C3.59167 10.1733 3.31333 10.13 2.97 10.13L2.195 10.13L2.195 9.38L2.785 9.38C3.225 9.38 3.57167 9.29 3.825 9.11C4.07833 8.92667 4.205 8.67833 4.205 8.365C4.205 8.085 4.1 7.85 3.89 7.66C3.68 7.47 3.375 7.375 2.975 7.375C2.65833 7.375 2.37667 7.44 2.13 7.57C1.88333 7.69667 1.72 7.925 1.64 8.255L0.655 8.255C0.705 7.84167 0.835 7.50667 1.045 7.25C1.255 6.99333 1.52333 6.80667 1.85 6.69C2.17667 6.57333 2.54167 6.515 2.945 6.515C3.38167 6.515 3.77167 6.59 4.115 6.74C4.46167 6.88667 4.73333 7.09167 4.93 7.355C5.12667 7.61833 5.225 7.92167 5.225 8.265C5.225 8.595 5.13167 8.88 4.945 9.12C4.76167 9.35667 4.49333 9.53833 4.14 9.665C4.53333 9.785 4.85333 9.97667 5.1 10.24C5.34667 10.5 5.47 10.83 5.47 11.23C5.47 11.6 5.37 11.9283 5.17 12.215C4.97 12.5017 4.68833 12.7267 4.325 12.89C3.96167 13.05 3.53333 13.13 3.04 13.13ZM6.01016 12.44C6.01016 12.2533 6.07349 12.095 6.20016 11.965C6.33016 11.835 6.49349 11.77 6.69016 11.77C6.88682 11.77 7.05349 11.835 7.19016 11.965C7.32682 12.095 7.39516 12.2533 7.39516 12.44C7.39516 12.6233 7.32682 12.7783 7.19016 12.905C7.05349 13.0283 6.88682 13.09 6.69016 13.09C6.49349 13.09 6.33016 13.0267 6.20016 12.9C6.07349 12.7733 6.01016 12.62 6.01016 12.44ZM10.4699 13L10.4699 6.63L12.6049 6.63C13.3149 6.63 13.8616 6.80667 14.2449 7.16C14.6283 7.51333 14.8199 8.00167 14.8199 8.625C14.8199 9.24167 14.6283 9.72667 14.2449 10.08C13.8616 10.43 13.3149 10.605 12.6049 10.605L11.4299 10.605L11.4299 13L10.4699 13ZM11.4299 9.775L12.6049 9.775C13.0116 9.775 13.3199 9.67 13.5299 9.46C13.7399 9.25 13.8449 8.97167 13.8449 8.625C13.8449 8.275 13.7399 7.99167 13.5299 7.775C13.3199 7.55833 13.0116 7.45 12.6049 7.45L11.4299 7.45L11.4299 9.775ZM15.8492 13L15.8492 6.63L16.7992 6.63L16.7992 13L15.8492 13ZM18.4346 6.63L19.5196 6.63L22.6046 11.57L22.5296 11.57L22.5296 6.63L23.4796 6.63L23.4796 13L22.4696 13L19.2346 7.84L19.3846 7.84L19.3846 13L18.4346 13L18.4346 6.63ZM27.2484 13L27.2484 6.63L29.3834 6.63C30.0934 6.63 30.6401 6.80667 31.0234 7.16C31.4068 7.51333 31.5984 8.00167 31.5984 8.625C31.5984 9.24167 31.4068 9.72667 31.0234 10.08C30.6401 10.43 30.0934 10.605 29.3834 10.605L28.2084 10.605L28.2084 13L27.2484 13ZM28.2084 9.775L29.3834 9.775C29.7901 9.775 30.0984 9.67 30.3084 9.46C30.5184 9.25 30.6234 8.97167 30.6234 8.625C30.6234 8.275 30.5184 7.99167 30.3084 7.775C30.0984 7.55833 29.7901 7.45 29.3834 7.45L28.2084 7.45L28.2084 9.775ZM32.5077 6.63L33.4577 6.63L33.4577 10.655C33.4577 11.2217 33.5994 11.63 33.8827 11.88C34.1694 12.13 34.5411 12.255 34.9977 12.255C35.4544 12.255 35.8244 12.13 36.1077 11.88C36.3911 11.63 36.5327 11.2217 36.5327 10.655L36.5327 6.63L37.4827 6.63L37.4827 10.655C37.4827 11.1883 37.3827 11.64 37.1827 12.01C36.9827 12.3767 36.6961 12.655 36.3227 12.845C35.9527 13.035 35.5111 13.13 34.9977 13.13C34.4877 13.13 34.0461 13.035 33.6727 12.845C33.2994 12.655 33.0111 12.3767 32.8077 12.01C32.6077 11.64 32.5077 11.1883 32.5077 10.655L32.5077 6.63ZM41.1372 13.13C40.7039 13.13 40.3055 13.0533 39.9422 12.9C39.5789 12.7433 39.2855 12.5117 39.0622 12.205C38.8422 11.8983 38.7272 11.515 38.7172 11.055L39.6472 11.055C39.6472 11.3317 39.7139 11.5583 39.8472 11.735C39.9839 11.9117 40.1639 12.0433 40.3872 12.13C40.6105 12.2133 40.8572 12.255 41.1272 12.255C41.4005 12.255 41.6422 12.2133 41.8522 12.13C42.0622 12.0467 42.2239 11.935 42.3372 11.795C42.4539 11.655 42.5122 11.495 42.5122 11.315C42.5122 11.0717 42.4372 10.8767 42.2872 10.73C42.1372 10.58 41.9089 10.4533 41.6022 10.35L40.4172 9.91C39.9072 9.72 39.5189 9.50167 39.2522 9.255C38.9855 9.005 38.8522 8.65833 38.8522 8.215C38.8522 7.71167 39.0489 7.30333 39.4422 6.99C39.8355 6.67333 40.3889 6.515 41.1022 6.515C41.7789 6.515 42.3039 6.67167 42.6772 6.985C43.0539 7.29833 43.2689 7.725 43.3222 8.265L42.3872 8.265C42.3405 7.99167 42.2122 7.775 42.0022 7.615C41.7955 7.455 41.4955 7.375 41.1022 7.375C40.7222 7.375 40.4255 7.45833 40.2122 7.625C39.9989 7.78833 39.8922 7.995 39.8922 8.245C39.8922 8.45167 39.9589 8.61667 40.0922 8.74C40.2289 8.86333 40.4405 8.975 40.7272 9.075L42.0772 9.57C42.5405 9.73333 42.9022 9.95333 43.1622 10.23C43.4222 10.5067 43.5522 10.8583 43.5522 11.285C43.5522 11.645 43.4589 11.9633 43.2722 12.24C43.0855 12.5167 42.8122 12.735 42.4522 12.895C42.0922 13.0517 41.6539 13.13 41.1372 13.13ZM44.8988 6.63L45.8488 6.63L45.8488 9.375L48.8388 9.375L48.8388 6.63L49.7838 6.63L49.7838 13L48.8388 13L48.8388 10.2L45.8488 10.2L45.8488 13L44.8988 13L44.8988 6.63ZM55.8459 13.13C55.2826 13.13 54.7959 12.9933 54.3859 12.72C53.9793 12.4433 53.6643 12.055 53.4409 11.555C53.2176 11.0517 53.1059 10.4617 53.1059 9.785C53.1059 9.07167 53.2243 8.47333 53.4609 7.99C53.6976 7.50333 54.0226 7.13667 54.4359 6.89C54.8526 6.64 55.3226 6.515 55.8459 6.515C56.5493 6.515 57.1093 6.69 57.5259 7.04C57.9426 7.38667 58.2193 7.83833 58.3559 8.395L57.3409 8.59C57.2209 8.22 57.0309 7.925 56.7709 7.705C56.5109 7.48167 56.2026 7.37 55.8459 7.37C55.5326 7.37 55.2459 7.46 54.9859 7.64C54.7259 7.82 54.5176 8.09 54.3609 8.45C54.2043 8.80667 54.1259 9.25167 54.1259 9.785C54.1259 10.2783 54.1909 10.7117 54.3209 11.085C54.4509 11.455 54.6426 11.7433 54.8959 11.95C55.1493 12.1567 55.4659 12.26 55.8459 12.26C56.3093 12.26 56.6743 12.1367 56.9409 11.89C57.2076 11.64 57.3409 11.315 57.3409 10.915L58.3659 10.915C58.3659 11.3817 58.2609 11.78 58.0509 12.11C57.8443 12.4367 57.5526 12.6883 57.1759 12.865C56.7993 13.0417 56.3559 13.13 55.8459 13.13ZM61.8269 13.13C61.2835 13.13 60.8002 13.0067 60.3769 12.76C59.9535 12.5133 59.6202 12.145 59.3769 11.655C59.1369 11.165 59.0169 10.5533 59.0169 9.82C59.0169 9.07333 59.1369 8.45667 59.3769 7.97C59.6202 7.48 59.9535 7.115 60.3769 6.875C60.8002 6.635 61.2835 6.515 61.8269 6.515C62.3735 6.515 62.8585 6.63667 63.2819 6.88C63.7085 7.12333 64.0419 7.49167 64.2819 7.985C64.5252 8.475 64.6469 9.08667 64.6469 9.82C64.6469 10.56 64.5252 11.1767 64.2819 11.67C64.0419 12.16 63.7085 12.5267 63.2819 12.77C62.8585 13.01 62.3735 13.13 61.8269 13.13ZM61.8269 12.26C62.3935 12.26 62.8402 12.0517 63.1669 11.635C63.4969 11.2183 63.6619 10.61 63.6619 9.81C63.6619 9.03 63.4969 8.42833 63.1669 8.005C62.8402 7.57833 62.3935 7.365 61.8269 7.365C61.2702 7.365 60.8269 7.57833 60.4969 8.005C60.1669 8.43167 60.0019 9.03667 60.0019 9.82C60.0019 10.6133 60.1669 11.2183 60.4969 11.635C60.8269 12.0517 61.2702 12.26 61.8269 12.26ZM65.6882 6.63L66.6382 6.63L66.6382 10.655C66.6382 11.2217 66.7799 11.63 67.0632 11.88C67.3499 12.13 67.7215 12.255 68.1782 12.255C68.6349 12.255 69.0049 12.13 69.2882 11.88C69.5715 11.63 69.7132 11.2217 69.7132 10.655L69.7132 6.63L70.6632 6.63L70.6632 10.655C70.6632 11.1883 70.5632 11.64 70.3632 12.01C70.1632 12.3767 69.8765 12.655 69.5032 12.845C69.1332 13.035 68.6915 13.13 68.1782 13.13C67.6682 13.13 67.2265 13.035 66.8532 12.845C66.4799 12.655 66.1915 12.3767 65.9882 12.01C65.7882 11.64 65.6882 11.1883 65.6882 10.655L65.6882 6.63ZM72.1727 13L72.1727 6.63L74.3077 6.63C75.0177 6.63 75.5643 6.80667 75.9477 7.16C76.331 7.51333 76.5227 8.00167 76.5227 8.625C76.5227 9.24167 76.331 9.72667 75.9477 10.08C75.5643 10.43 75.0177 10.605 74.3077 10.605L73.1327 10.605L73.1327 13L72.1727 13ZM73.1327 9.775L74.3077 9.775C74.7143 9.775 75.0227 9.67 75.2327 9.46C75.4427 9.25 75.5477 8.97167 75.5477 8.625C75.5477 8.275 75.4427 7.99167 75.2327 7.775C75.0227 7.55833 74.7143 7.45 74.3077 7.45L73.1327 7.45L73.1327 9.775ZM78.502 6.63L78.502 12.17L81.247 12.17L81.247 13L77.552 13L77.552 6.63L78.502 6.63ZM82.0371 13L82.0371 6.63L82.9871 6.63L82.9871 13L82.0371 13ZM84.6225 6.63L85.7075 6.63L88.7925 11.57L88.7175 11.57L88.7175 6.63L89.6675 6.63L89.6675 13L88.6575 13L85.4225 7.84L85.5725 7.84L85.5725 13L84.6225 13L84.6225 6.63ZM93.5999 13.13C93.0866 13.13 92.6216 12.9967 92.2049 12.73C91.7883 12.46 91.4566 12.0817 91.2099 11.595C90.9633 11.105 90.8399 10.53 90.8399 9.87C90.8399 9.33333 90.9166 8.85667 91.0699 8.44C91.2266 8.02333 91.4416 7.67167 91.7149 7.385C91.9916 7.09833 92.3116 6.88167 92.6749 6.735C93.0383 6.58833 93.4266 6.515 93.8399 6.515C94.3799 6.515 94.8433 6.62833 95.2299 6.855C95.6166 7.08167 95.9349 7.44167 96.1849 7.935L95.2449 8.205C95.0449 7.92833 94.8249 7.72167 94.5849 7.585C94.3449 7.445 94.0816 7.375 93.7949 7.375C93.4449 7.375 93.1216 7.47667 92.8249 7.68C92.5316 7.88 92.2966 8.16667 92.1199 8.54C91.9433 8.91 91.8549 9.35333 91.8549 9.87C91.8549 10.34 91.9283 10.755 92.0749 11.115C92.2249 11.4717 92.4349 11.7517 92.7049 11.955C92.9783 12.155 93.2999 12.255 93.6699 12.255C93.9633 12.255 94.2266 12.1883 94.4599 12.055C94.6933 11.9217 94.8766 11.725 95.0099 11.465C95.1466 11.2017 95.2149 10.8767 95.2149 10.49L95.4649 10.49C95.4649 11.0267 95.3999 11.4933 95.2699 11.89C95.1433 12.2833 94.9433 12.5883 94.6699 12.805C94.3966 13.0217 94.0399 13.13 93.5999 13.13ZM95.3649 13L95.2149 11.54L95.2149 10.46L93.6849 10.42L93.6849 9.795L96.1349 9.795L96.1349 13L95.3649 13Z" fill="black"/>
</svg>
