<svg width="334" height="25" viewBox="0 0 334 25" fill="none" xmlns="http://www.w3.org/2000/svg">
<path d="M5.17969 19.1562C1.98438 19.1562 0.679688 16.6562 0.679688 13.7344C0.679688 10.8125 1.96094 8.23438 5.17969 8.23438C8.44531 8.23438 9.67969 10.9219 9.67969 13.7344C9.67969 16.6562 8.38281 19.1562 5.17969 19.1562ZM2.76562 13.6953C2.76562 15.5703 3.45312 17.2656 5.17969 17.2656C6.92188 17.2656 7.59375 15.5078 7.59375 13.6953C7.59375 11.8125 6.91406 10.125 5.17969 10.125C3.44531 10.125 2.76562 11.875 2.76562 13.6953ZM14.4944 19V10.2422H12.2366V8.39062H16.6038V19H14.4944ZM20.1763 18.0078C20.1763 17.3672 20.6763 16.8594 21.3325 16.8594C21.9888 16.8594 22.4966 17.3672 22.4966 18.0078C22.4966 18.6562 21.9888 19.1562 21.3325 19.1562C20.6763 19.1562 20.1763 18.6562 20.1763 18.0078Z" fill="black"/>
<path d="M30.5156 19V10.2656H27.1953V8.39062H35.9297V10.2656H32.6172V19H30.5156ZM45.5725 19L44.7913 16.9219H39.8694L39.0803 19H36.8303L41.1116 8.39062H43.5334L47.8225 19H45.5725ZM42.3303 10.5938L40.4631 15.2422H44.1819L42.3303 10.5938ZM55.7231 15.875H52.9184V19H50.8091V8.39062H55.7231C57.8638 8.39062 59.5903 9.74219 59.5903 12.1484C59.5903 14.4219 57.8638 15.875 55.7231 15.875ZM55.4809 10.2188H52.9184V14.0547H55.4809C56.5981 14.0547 57.4184 13.2812 57.4184 12.1484C57.4184 10.9141 56.5825 10.2188 55.4809 10.2188ZM70.8737 17.1797V19H62.8972V8.39062H70.7566V10.2188H65.0066V12.6641H70.0378V14.4922H65.0066V17.1797H70.8737ZM81.3369 18.9922L78.9072 15.875H76.4541V19H74.3447V8.39062H79.2666C81.4072 8.39062 83.1416 9.75 83.1416 12.1406C83.1416 13.6797 82.2822 14.8906 81.0713 15.4766L83.8838 18.9922H81.3369ZM79.0244 10.2188H76.4541V14.0547H79.0244C80.1494 14.0547 80.9697 13.2812 80.9697 12.1484C80.9697 10.9141 80.1338 10.2188 79.0244 10.2188ZM92.7084 19V8.39062H97.6537C99.56 8.39062 100.935 9.57031 100.935 11.2891C100.935 12.2344 100.544 12.9766 99.6616 13.5312C100.888 13.9766 101.49 14.9375 101.49 16.0547C101.49 17.7891 100.154 19 98.1928 19H92.7084ZM94.8178 12.8438H97.3725C98.2397 12.8438 98.7553 12.3047 98.7553 11.5234C98.7553 10.6875 98.1303 10.2031 97.2944 10.2031H94.8178V12.8438ZM94.8178 17.1953H97.8491C98.6928 17.1953 99.2475 16.6562 99.2475 15.8906C99.2475 15.0625 98.7006 14.5078 97.8491 14.5078H94.8178V17.1953ZM104.882 15.2344V8.39062H106.984V15.0938C106.984 16.6094 108.078 17.2656 109.507 17.2656C111.031 17.2656 112.047 16.5469 112.047 15.0938V8.39062H114.148V15.2344C114.148 18 111.937 19.1562 109.507 19.1562C106.882 19.1562 104.882 17.9062 104.882 15.2344ZM121.596 8.23438C123.08 8.23438 124.15 8.52344 124.994 8.89844L124.814 10.7734C124.26 10.4453 122.885 10.0938 121.744 10.0938C120.596 10.0938 119.775 10.4453 119.775 11.3203C119.775 12.2031 120.525 12.3594 121.252 12.5781L122.783 13.0312C124.533 13.5469 125.533 14.2969 125.533 15.9219C125.533 17.8047 123.932 19.1562 121.51 19.1562C120.01 19.1562 118.314 18.7812 117.58 18.375L117.752 16.4922C118.275 16.8203 120.002 17.2812 121.322 17.2812C122.439 17.2812 123.33 16.8906 123.33 16.0234C123.33 15.3516 122.932 15.0547 122.033 14.8125L120.353 14.3594C119.002 13.9922 117.58 13.2578 117.58 11.4922C117.58 9.53125 119.119 8.23438 121.596 8.23438ZM138.309 8.39062V19H136.207V14.5H131.035V19H128.926V8.39062H131.035V12.6797H136.207V8.39062H138.309ZM152.86 15.875H150.055V19H147.946V8.39062H152.86C155.001 8.39062 156.727 9.74219 156.727 12.1484C156.727 14.4219 155.001 15.875 152.86 15.875ZM152.618 10.2188H150.055V14.0547H152.618C153.735 14.0547 154.555 13.2812 154.555 12.1484C154.555 10.9141 153.719 10.2188 152.618 10.2188ZM159.948 15.2344V8.39062H162.05V15.0938C162.05 16.6094 163.143 17.2656 164.573 17.2656C166.097 17.2656 167.112 16.5469 167.112 15.0938V8.39062H169.214V15.2344C169.214 18 167.003 19.1562 164.573 19.1562C161.948 19.1562 159.948 17.9062 159.948 15.2344ZM180.974 17.1797V19H173.153V8.39062H175.263V17.1797H180.974ZM191.906 17.1797V19H184.085V8.39062H186.195V17.1797H191.906ZM202.994 17.1797V19H195.017V8.39062H202.877V10.2188H197.127V12.6641H202.158V14.4922H197.127V17.1797H202.994ZM210.848 12.8516L213.777 8.39062H216.215L211.887 14.9922V19H209.785V14.9922L205.433 8.39062H207.949L210.848 12.8516Z" fill="black"/>
<line x1="218" y1="16.5" x2="301" y2="16.5" stroke="#0F3B68" stroke-dasharray="2 2"/>
<path d="M316.41 24.2344C311.617 24.2344 309.66 20.4844 309.66 16.1016C309.66 11.7188 311.581 7.85156 316.41 7.85156C321.308 7.85156 323.16 11.8828 323.16 16.1016C323.16 20.4844 321.214 24.2344 316.41 24.2344ZM312.788 16.043C312.788 18.8555 313.82 21.3984 316.41 21.3984C319.023 21.3984 320.031 18.7617 320.031 16.043C320.031 13.2188 319.011 10.6875 316.41 10.6875C313.808 10.6875 312.788 13.3125 312.788 16.043ZM328.462 24V10.8633H325.075V8.08594H331.626V24H328.462Z" fill="#122C4C"/>
</svg>
