<svg width="334" height="25" viewBox="0 0 334 25" fill="none" xmlns="http://www.w3.org/2000/svg">
<path d="M5.17969 19.1562C1.98438 19.1562 0.679688 16.6562 0.679688 13.7344C0.679688 10.8125 1.96094 8.23438 5.17969 8.23438C8.44531 8.23438 9.67969 10.9219 9.67969 13.7344C9.67969 16.6562 8.38281 19.1562 5.17969 19.1562ZM2.76562 13.6953C2.76562 15.5703 3.45312 17.2656 5.17969 17.2656C6.92188 17.2656 7.59375 15.5078 7.59375 13.6953C7.59375 11.8125 6.91406 10.125 5.17969 10.125C3.44531 10.125 2.76562 11.875 2.76562 13.6953ZM15.3459 17.1562H19.9709V19H12.5334V17.3984L15.9319 14.25C16.9709 13.2812 17.4006 12.5391 17.4006 11.6797C17.4006 10.4688 16.5334 10.0938 15.4944 10.0938C14.6038 10.0938 13.5178 10.4297 12.9084 10.8047L12.6272 9.02344C13.5491 8.53125 14.6428 8.23438 15.76 8.23438C17.7913 8.23438 19.6116 9.16406 19.6116 11.5703C19.6116 12.9688 18.8538 14.0781 17.1584 15.5625C16.5803 16.0703 15.9866 16.6094 15.3459 17.1562ZM22.9419 18.0078C22.9419 17.3672 23.4419 16.8594 24.0981 16.8594C24.7544 16.8594 25.2622 17.3672 25.2622 18.0078C25.2622 18.6562 24.7544 19.1562 24.0981 19.1562C23.4419 19.1562 22.9419 18.6562 22.9419 18.0078Z" fill="black"/>
<path d="M30.5156 19V10.2656H27.1953V8.39062H35.9297V10.2656H32.6172V19H30.5156ZM41.1272 8.39062V19H39.0178V8.39062H41.1272ZM51.1684 15.7578H50.8325L47.2622 11.7578V19H45.1528V8.39062H46.9809L50.9966 13.1406L54.9966 8.39062H56.8169V19H54.7153V11.75L51.1684 15.7578ZM62.9597 8.39062V19H60.8503V8.39062H62.9597ZM69.0947 11.7969V19H66.9853V8.39062H68.8994L75.0009 15.6719V8.39062H77.1103V19H75.165L69.0947 11.7969ZM88.7141 16.9219V14.8047H85.8625V13.0234H90.8078V18.2031C89.7297 18.7969 88.1672 19.1562 86.8312 19.1562C82.9875 19.1562 80.5891 16.8828 80.5891 13.6953C80.5891 10.2422 83.3469 8.24219 86.925 8.24219C88.1281 8.24219 89.3156 8.48438 90.3547 8.96094L90.1906 10.8438C89.7219 10.6328 88.4953 10.1641 87.0422 10.1641C84.5812 10.1641 82.7766 11.3906 82.7766 13.6953C82.7766 15.8438 84.3703 17.2344 86.7453 17.2344C87.3859 17.2344 88.2375 17.1406 88.7141 16.9219ZM104.976 15.875H102.172V19H100.062V8.39062H104.976C107.117 8.39062 108.843 9.74219 108.843 12.1484C108.843 14.4219 107.117 15.875 104.976 15.875ZM104.734 10.2188H102.172V14.0547H104.734C105.851 14.0547 106.672 13.2812 106.672 12.1484C106.672 10.9141 105.836 10.2188 104.734 10.2188ZM112.064 15.2344V8.39062H114.166V15.0938C114.166 16.6094 115.26 17.2656 116.689 17.2656C118.213 17.2656 119.228 16.5469 119.228 15.0938V8.39062H121.33V15.2344C121.33 18 119.119 19.1562 116.689 19.1562C114.064 19.1562 112.064 17.9062 112.064 15.2344ZM133.09 17.1797V19H125.27V8.39062H127.379V17.1797H133.09ZM144.022 17.1797V19H136.202V8.39062H138.311V17.1797H144.022ZM155.11 17.1797V19H147.133V8.39062H154.993V10.2188H149.243V12.6641H154.274V14.4922H149.243V17.1797H155.11ZM162.964 12.8516L165.893 8.39062H168.331L164.003 14.9922V19H161.901V14.9922L157.55 8.39062H160.065L162.964 12.8516Z" fill="black"/>
<path d="M173 17L304 17" stroke="#0F3B68" stroke-dasharray="2 2"/>
<path d="M319.556 21.2344H326.494V24H315.338V21.5977L320.435 16.875C321.994 15.4219 322.638 14.3086 322.638 13.0195C322.638 11.2031 321.338 10.6406 319.779 10.6406C318.443 10.6406 316.814 11.1445 315.9 11.707L315.478 9.03516C316.861 8.29688 318.502 7.85156 320.177 7.85156C323.224 7.85156 325.955 9.24609 325.955 12.8555C325.955 14.9531 324.818 16.6172 322.275 18.8438C321.408 19.6055 320.517 20.4141 319.556 21.2344ZM330.596 24V10.8633H327.209V8.08594H333.76V24H330.596Z" fill="#122C4C"/>
</svg>
