<svg width="229" height="110" viewBox="0 0 229 110" fill="none" xmlns="http://www.w3.org/2000/svg">
<path d="M9.71875 37.4375L9.71875 63.9609L1.92578 63.9609L1.92578 37.4375L9.71875 37.4375ZM20.4805 49.957L20.4805 63.9609L12.9023 63.9609L12.9023 37.4375L19.25 37.4375L31.3398 51.5977L31.3398 37.4375L38.918 37.4375L38.918 63.9609L32.8438 63.9609L20.4805 49.957ZM42.082 37.4375L54.2109 37.4375C62.8438 37.4375 68.0391 41.9102 68.0391 50.6016C68.0391 59.332 62.8828 63.9609 54.2109 63.9609L42.082 63.9609L42.082 37.4375ZM53.7617 57.6328C57.8828 57.6328 60.1289 54.957 60.1289 50.6016C60.1289 45.9727 57.707 43.8047 53.7617 43.8047L49.7578 43.8047L49.7578 57.6328L53.7617 57.6328ZM70.4023 54.0781L70.4023 37.4375L77.9609 37.4375L77.9609 53.5312C77.9609 56.3242 80.4023 57.7305 82.7656 57.7305C85.2852 57.7305 87.5898 56.207 87.5898 53.5312L87.5898 37.4375L95.1484 37.4375L95.1484 54.0781C95.1484 61.1875 88.9375 64.3516 82.7656 64.3516C76.0859 64.3516 70.4023 60.9336 70.4023 54.0781ZM108.82 37.0273C112.805 37.0273 115.871 37.8086 117.98 38.8047L117.336 45.4258C115.695 44.4687 112.492 43.4531 109.211 43.4531C107.16 43.4531 105.461 43.7852 105.461 45.3672C105.461 46.4609 106.691 46.7148 108.02 47.1055L112.238 48.3359C116.828 49.6641 119.543 51.832 119.543 55.9727C119.543 60.9727 115.266 64.3906 108.41 64.3906C103.371 64.3906 99.4453 63.082 97.5898 62.1836L98.3711 55.543C99.9141 56.3828 103.605 57.8477 107.844 57.8477C109.797 57.8477 111.281 57.3984 111.281 56.1289C111.281 55.3281 110.695 54.7812 109.094 54.3516L105.012 53.2578C101.477 52.3203 97.5117 50.3672 97.5117 45.2695C97.5117 40.2109 102.063 37.0273 108.82 37.0273ZM127.863 63.9609L127.863 43.8047L120.305 43.8047L120.305 37.4375L143.41 37.4375L143.41 43.8047L135.656 43.8047L135.656 63.9609L127.863 63.9609ZM170.813 63.9609L161.574 63.9609L156.418 56.7539L153.02 56.7539L153.02 63.9609L145.285 63.9609L145.285 37.4375L158.723 37.4375C165.344 37.4375 169.055 41.6367 169.055 46.9883C169.055 50.8359 166.828 53.9219 164.25 55.0937L170.813 63.9609ZM157.395 43.9023L153.02 43.9023L153.02 50.4258L157.395 50.4258C159.68 50.4258 161.145 49.293 161.145 47.1445C161.145 44.918 159.758 43.9023 157.395 43.9023ZM180.656 37.4375L180.656 63.9609L172.863 63.9609L172.863 37.4375L180.656 37.4375ZM204.523 57.75L204.523 63.9609L183.84 63.9609L183.84 37.4375L204.426 37.4375L204.426 43.6875L191.633 43.6875L191.633 47.418L203.137 47.418L203.137 53.6289L191.633 53.6289L191.633 57.75L204.523 57.75ZM217.531 37.0273C221.516 37.0273 224.582 37.8086 226.691 38.8047L226.047 45.4258C224.406 44.4687 221.203 43.4531 217.922 43.4531C215.871 43.4531 214.172 43.7852 214.172 45.3672C214.172 46.4609 215.402 46.7148 216.73 47.1055L220.949 48.3359C225.539 49.6641 228.254 51.832 228.254 55.9727C228.254 60.9727 223.977 64.3906 217.121 64.3906C212.082 64.3906 208.156 63.082 206.301 62.1836L207.082 55.543C208.625 56.3828 212.316 57.8477 216.555 57.8477C218.508 57.8477 219.992 57.3984 219.992 56.1289C219.992 55.3281 219.406 54.7812 217.805 54.3516L213.723 53.2578C210.188 52.3203 206.223 50.3672 206.223 45.2695C206.223 40.2109 210.773 37.0273 217.531 37.0273Z" fill="#080808"/>
<path d="M1.24672 88.9766L1.24672 81.2606L3.90472 81.2606C4.76872 81.2606 5.43872 81.4746 5.91472 81.9026C6.39072 82.3306 6.62872 82.9286 6.62872 83.6966C6.62872 84.4606 6.39072 85.0566 5.91472 85.4846C5.43872 85.9126 4.76872 86.1266 3.90472 86.1266L2.54272 86.1266L2.54272 88.9766L1.24672 88.9766ZM2.54272 85.0046L3.90472 85.0046C4.36872 85.0046 4.71872 84.8846 4.95472 84.6446C5.19072 84.4006 5.30872 84.0846 5.30872 83.6966C5.30872 83.3046 5.19072 82.9846 4.95472 82.7366C4.71872 82.4886 4.36872 82.3646 3.90472 82.3646L2.54272 82.3646L2.54272 85.0046ZM7.91563 88.9766L7.91563 83.1566L9.19963 83.1566L9.19963 88.9766L7.91563 88.9766ZM8.86963 86.4086C8.86963 85.6566 8.95163 85.0346 9.11563 84.5426C9.27963 84.0466 9.50363 83.6786 9.78763 83.4386C10.0716 83.1946 10.3956 83.0726 10.7596 83.0726C10.8676 83.0726 10.9656 83.0806 11.0536 83.0966C11.1456 83.1086 11.2376 83.1286 11.3296 83.1566L11.2936 84.4346C11.1856 84.4066 11.0696 84.3846 10.9456 84.3686C10.8256 84.3486 10.7156 84.3386 10.6156 84.3386C10.2996 84.3386 10.0356 84.4206 9.82363 84.5846C9.61563 84.7446 9.45963 84.9786 9.35563 85.2866C9.25163 85.5946 9.19963 85.9686 9.19963 86.4086L8.86963 86.4086ZM14.4051 89.1386C13.9091 89.1386 13.4571 89.0106 13.0491 88.7546C12.6451 88.4986 12.3211 88.1406 12.0771 87.6806C11.8371 87.2206 11.7171 86.6866 11.7171 86.0786C11.7171 85.4386 11.8371 84.8906 12.0771 84.4346C12.3171 83.9786 12.6391 83.6286 13.0431 83.3846C13.4511 83.1406 13.9051 83.0186 14.4051 83.0186C14.8651 83.0186 15.2591 83.1106 15.5871 83.2946C15.9151 83.4786 16.1791 83.7266 16.3791 84.0386C16.5831 84.3506 16.7211 84.7046 16.7931 85.1006C16.8651 85.4926 16.8731 85.8986 16.8171 86.3186L12.7431 86.3186L12.7431 85.6046L15.9231 85.6046L15.6471 85.7846C15.6591 85.5806 15.6491 85.3766 15.6171 85.1726C15.5851 84.9686 15.5231 84.7826 15.4311 84.6146C15.3431 84.4426 15.2171 84.3046 15.0531 84.2006C14.8891 84.0966 14.6811 84.0446 14.4291 84.0446C14.1171 84.0446 13.8531 84.1226 13.6371 84.2786C13.4251 84.4346 13.2651 84.6446 13.1571 84.9086C13.0491 85.1726 12.9951 85.4666 12.9951 85.7906L12.9951 86.3066C12.9951 86.6546 13.0471 86.9626 13.1511 87.2306C13.2551 87.4986 13.4111 87.7106 13.6191 87.8666C13.8271 88.0226 14.0891 88.1006 14.4051 88.1006C14.7091 88.1006 14.9611 88.0306 15.1611 87.8906C15.3651 87.7466 15.4931 87.5326 15.5451 87.2486L16.8471 87.2486C16.7871 87.6246 16.6471 87.9546 16.4271 88.2386C16.2071 88.5226 15.9251 88.7446 15.5811 88.9046C15.2371 89.0606 14.8451 89.1386 14.4051 89.1386ZM20.5058 89.1386C20.0258 89.1386 19.5778 89.0126 19.1618 88.7606C18.7498 88.5086 18.4158 88.1526 18.1598 87.6926C17.9078 87.2326 17.7818 86.6926 17.7818 86.0726C17.7818 85.4166 17.9078 84.8626 18.1598 84.4106C18.4158 83.9546 18.7498 83.6086 19.1618 83.3726C19.5778 83.1366 20.0258 83.0186 20.5058 83.0186C20.8698 83.0186 21.1918 83.0766 21.4718 83.1926C21.7558 83.3086 21.9978 83.4646 22.1978 83.6606C22.3978 83.8566 22.5558 84.0766 22.6718 84.3206C22.7918 84.5606 22.8718 84.8066 22.9118 85.0586L21.6098 85.1066C21.5378 84.8306 21.4058 84.6066 21.2138 84.4346C21.0258 84.2586 20.7858 84.1706 20.4938 84.1706C20.2498 84.1706 20.0198 84.2386 19.8038 84.3746C19.5918 84.5066 19.4178 84.7126 19.2818 84.9926C19.1498 85.2726 19.0838 85.6326 19.0838 86.0726C19.0838 86.4846 19.1458 86.8326 19.2698 87.1166C19.3938 87.3966 19.5618 87.6106 19.7738 87.7586C19.9898 87.9026 20.2298 87.9746 20.4938 87.9746C20.8738 87.9746 21.1538 87.8826 21.3338 87.6986C21.5178 87.5106 21.6098 87.2586 21.6098 86.9426L22.9118 86.9426C22.9118 87.3506 22.8178 87.7206 22.6298 88.0526C22.4418 88.3846 22.1678 88.6486 21.8078 88.8446C21.4518 89.0406 21.0178 89.1386 20.5058 89.1386ZM25.1605 82.0346C24.9085 82.0346 24.7105 81.9666 24.5665 81.8306C24.4225 81.6906 24.3505 81.5026 24.3505 81.2666C24.3505 81.0346 24.4225 80.8506 24.5665 80.7146C24.7105 80.5786 24.9085 80.5106 25.1605 80.5106C25.4085 80.5106 25.6045 80.5786 25.7485 80.7146C25.8925 80.8506 25.9645 81.0346 25.9645 81.2666C25.9645 81.5026 25.8925 81.6906 25.7485 81.8306C25.6045 81.9666 25.4085 82.0346 25.1605 82.0346ZM24.5185 88.9766L24.5185 83.1566L25.8025 83.1566L25.8025 88.9766L24.5185 88.9766ZM30.1445 89.1386C29.5885 89.1386 29.1125 89.0606 28.7165 88.9046C28.3245 88.7486 28.0225 88.5286 27.8105 88.2446C27.6025 87.9566 27.4965 87.6146 27.4925 87.2186L28.6865 87.2186C28.7025 87.5266 28.8265 87.7546 29.0585 87.9026C29.2905 88.0466 29.6045 88.1186 30.0005 88.1186C30.2165 88.1186 30.4105 88.0866 30.5825 88.0226C30.7545 87.9546 30.8885 87.8646 30.9845 87.7526C31.0845 87.6366 31.1345 87.5086 31.1345 87.3686C31.1345 87.1886 31.0685 87.0466 30.9365 86.9426C30.8085 86.8386 30.6005 86.7446 30.3125 86.6606L29.0825 86.2346C28.6185 86.0746 28.2625 85.8606 28.0145 85.5926C27.7665 85.3246 27.6425 85.0046 27.6425 84.6326C27.6425 84.1486 27.8605 83.7586 28.2965 83.4626C28.7325 83.1666 29.3125 83.0186 30.0365 83.0186C30.7725 83.0186 31.3405 83.1766 31.7405 83.4926C32.1405 83.8086 32.3465 84.2066 32.3585 84.6866L31.1405 84.6866C31.1165 84.4786 31.0145 84.3166 30.8345 84.2006C30.6545 84.0806 30.3885 84.0206 30.0365 84.0206C29.7125 84.0206 29.4585 84.0906 29.2745 84.2306C29.0945 84.3666 29.0045 84.5226 29.0045 84.6986C29.0045 85.0066 29.2685 85.2366 29.7965 85.3886L31.1105 85.8686C31.5705 86.0206 31.9265 86.2166 32.1785 86.4566C32.4305 86.6966 32.5565 87.0006 32.5565 87.3686C32.5565 87.6726 32.4545 87.9606 32.2505 88.2326C32.0505 88.5006 31.7705 88.7186 31.4105 88.8866C31.0505 89.0546 30.6285 89.1386 30.1445 89.1386ZM34.8406 82.0346C34.5886 82.0346 34.3906 81.9666 34.2466 81.8306C34.1026 81.6906 34.0306 81.5026 34.0306 81.2666C34.0306 81.0346 34.1026 80.8506 34.2466 80.7146C34.3906 80.5786 34.5886 80.5106 34.8406 80.5106C35.0886 80.5106 35.2846 80.5786 35.4286 80.7146C35.5726 80.8506 35.6446 81.0346 35.6446 81.2666C35.6446 81.5026 35.5726 81.6906 35.4286 81.8306C35.2846 81.9666 35.0886 82.0346 34.8406 82.0346ZM34.1986 88.9766L34.1986 83.1566L35.4826 83.1566L35.4826 88.9766L34.1986 88.9766ZM39.9147 89.1386C39.3907 89.1386 38.9167 89.0246 38.4927 88.7966C38.0727 88.5686 37.7387 88.2286 37.4907 87.7766C37.2427 87.3246 37.1187 86.7606 37.1187 86.0846C37.1187 85.3966 37.2427 84.8266 37.4907 84.3746C37.7387 83.9226 38.0727 83.5846 38.4927 83.3606C38.9167 83.1326 39.3907 83.0186 39.9147 83.0186C40.4387 83.0186 40.9087 83.1326 41.3247 83.3606C41.7447 83.5846 42.0767 83.9226 42.3207 84.3746C42.5687 84.8266 42.6927 85.3966 42.6927 86.0846C42.6927 86.7606 42.5687 87.3246 42.3207 87.7766C42.0767 88.2286 41.7447 88.5686 41.3247 88.7966C40.9087 89.0246 40.4387 89.1386 39.9147 89.1386ZM39.8787 88.0166C40.1827 88.0166 40.4487 87.9426 40.6767 87.7946C40.9087 87.6466 41.0887 87.4286 41.2167 87.1406C41.3447 86.8526 41.4087 86.5006 41.4087 86.0846C41.4087 85.4486 41.2807 84.9646 41.0247 84.6326C40.7727 84.2966 40.4167 84.1286 39.9567 84.1286C39.6487 84.1286 39.3787 84.2026 39.1467 84.3506C38.9187 84.4986 38.7407 84.7186 38.6127 85.0106C38.4847 85.3026 38.4207 85.6606 38.4207 86.0846C38.4207 86.7086 38.5487 87.1866 38.8047 87.5186C39.0607 87.8506 39.4187 88.0166 39.8787 88.0166ZM48.1892 88.9766L48.1892 85.5806C48.1892 85.1166 48.0772 84.7666 47.8532 84.5306C47.6332 84.2906 47.3392 84.1706 46.9712 84.1706C46.6712 84.1706 46.4072 84.2526 46.1792 84.4166C45.9512 84.5806 45.7732 84.8246 45.6452 85.1486C45.5172 85.4726 45.4532 85.8706 45.4532 86.3426L45.0152 86.3426C45.0152 85.6106 45.1072 84.9986 45.2912 84.5066C45.4792 84.0146 45.7432 83.6446 46.0832 83.3966C46.4272 83.1446 46.8332 83.0186 47.3012 83.0186C47.7732 83.0186 48.1692 83.1246 48.4892 83.3366C48.8132 83.5486 49.0572 83.8466 49.2212 84.2306C49.3892 84.6146 49.4732 85.0646 49.4732 85.5806L49.4732 88.9766L48.1892 88.9766ZM44.1692 88.9766L44.1692 83.1806L45.2912 83.1806L45.4532 84.3806L45.4532 88.9766L44.1692 88.9766ZM54.0837 88.9766L54.0837 81.2606L55.3677 81.2606L55.3677 88.9766L54.0837 88.9766ZM61.438 88.9766L61.438 85.5806C61.438 85.1166 61.326 84.7666 61.102 84.5306C60.882 84.2906 60.588 84.1706 60.22 84.1706C59.92 84.1706 59.656 84.2526 59.428 84.4166C59.2 84.5806 59.022 84.8246 58.894 85.1486C58.766 85.4726 58.702 85.8706 58.702 86.3426L58.264 86.3426C58.264 85.6106 58.356 84.9986 58.54 84.5066C58.728 84.0146 58.992 83.6446 59.332 83.3966C59.676 83.1446 60.082 83.0186 60.55 83.0186C61.022 83.0186 61.418 83.1246 61.738 83.3366C62.062 83.5486 62.306 83.8466 62.47 84.2306C62.638 84.6146 62.722 85.0646 62.722 85.5806L62.722 88.9766L61.438 88.9766ZM57.418 88.9766L57.418 83.1806L58.54 83.1806L58.702 84.3806L58.702 88.9766L57.418 88.9766ZM67.3205 88.9766L67.3205 81.2606L72.2285 81.2606L72.2285 82.3646L68.6045 82.3646L68.6045 84.5486L72.0125 84.5486L72.0125 85.6586L68.6045 85.6586L68.6045 87.8546L72.2285 87.8546L72.2285 88.9766L67.3205 88.9766ZM73.0637 83.1806L74.5397 83.1806L76.0457 87.8786L75.9317 87.8786L77.4377 83.1806L78.9137 83.1806L76.7057 88.9766L75.2717 88.9766L73.0637 83.1806ZM82.1015 89.1386C81.6055 89.1386 81.1535 89.0106 80.7455 88.7546C80.3415 88.4986 80.0175 88.1406 79.7735 87.6806C79.5335 87.2206 79.4135 86.6866 79.4135 86.0786C79.4135 85.4386 79.5335 84.8906 79.7735 84.4346C80.0135 83.9786 80.3355 83.6286 80.7395 83.3846C81.1475 83.1406 81.6015 83.0186 82.1015 83.0186C82.5615 83.0186 82.9555 83.1106 83.2835 83.2946C83.6115 83.4786 83.8755 83.7266 84.0755 84.0386C84.2795 84.3506 84.4175 84.7046 84.4895 85.1006C84.5615 85.4926 84.5695 85.8986 84.5135 86.3186L80.4395 86.3186L80.4395 85.6046L83.6195 85.6046L83.3435 85.7846C83.3555 85.5806 83.3455 85.3766 83.3135 85.1726C83.2815 84.9686 83.2195 84.7826 83.1275 84.6146C83.0395 84.4426 82.9135 84.3046 82.7495 84.2006C82.5855 84.0966 82.3775 84.0446 82.1255 84.0446C81.8135 84.0446 81.5495 84.1226 81.3335 84.2786C81.1215 84.4346 80.9615 84.6446 80.8535 84.9086C80.7455 85.1726 80.6915 85.4666 80.6915 85.7906L80.6915 86.3066C80.6915 86.6546 80.7435 86.9626 80.8475 87.2306C80.9515 87.4986 81.1075 87.7106 81.3155 87.8666C81.5235 88.0226 81.7855 88.1006 82.1015 88.1006C82.4055 88.1006 82.6575 88.0306 82.8575 87.8906C83.0615 87.7466 83.1895 87.5326 83.2415 87.2486L84.5435 87.2486C84.4835 87.6246 84.3435 87.9546 84.1235 88.2386C83.9035 88.5226 83.6215 88.7446 83.2775 88.9046C82.9335 89.0606 82.5415 89.1386 82.1015 89.1386ZM86.0422 88.9766L86.0422 83.1566L87.3262 83.1566L87.3262 88.9766L86.0422 88.9766ZM86.9962 86.4086C86.9962 85.6566 87.0782 85.0346 87.2422 84.5426C87.4062 84.0466 87.6302 83.6786 87.9142 83.4386C88.1982 83.1946 88.5222 83.0726 88.8862 83.0726C88.9942 83.0726 89.0922 83.0806 89.1802 83.0966C89.2722 83.1086 89.3642 83.1286 89.4562 83.1566L89.4202 84.4346C89.3122 84.4066 89.1962 84.3846 89.0722 84.3686C88.9522 84.3486 88.8422 84.3386 88.7422 84.3386C88.4262 84.3386 88.1622 84.4206 87.9502 84.5846C87.7422 84.7446 87.5862 84.9786 87.4822 85.2866C87.3782 85.5946 87.3262 85.9686 87.3262 86.4086L86.9962 86.4086ZM89.5077 83.1806L90.9597 83.1806L92.5977 87.8546L92.3517 87.8546L93.7197 83.1806L95.0277 83.1806L92.8137 90.0566C92.5977 90.7166 92.3277 91.2006 92.0037 91.5086C91.6797 91.8166 91.2797 91.9706 90.8037 91.9706C90.5357 91.9706 90.2737 91.9386 90.0177 91.8746C89.7657 91.8106 89.5097 91.7126 89.2497 91.5806L89.2497 90.4346C89.4657 90.5826 89.6757 90.6886 89.8797 90.7526C90.0837 90.8206 90.2917 90.8546 90.5037 90.8546C90.7037 90.8546 90.8777 90.7966 91.0257 90.6806C91.1737 90.5646 91.2997 90.4066 91.4037 90.2066C91.5117 90.0106 91.6017 89.7906 91.6737 89.5466L91.8477 88.9766L89.5077 83.1806ZM98.8039 88.9766L98.8039 81.2606L101.462 81.2606C102.326 81.2606 102.996 81.4746 103.472 81.9026C103.948 82.3306 104.186 82.9286 104.186 83.6966C104.186 84.4606 103.948 85.0566 103.472 85.4846C102.996 85.9126 102.326 86.1266 101.462 86.1266L100.1 86.1266L100.1 88.9766L98.8039 88.9766ZM100.1 85.0046L101.462 85.0046C101.926 85.0046 102.276 84.8846 102.512 84.6446C102.748 84.4006 102.866 84.0846 102.866 83.6966C102.866 83.3046 102.748 82.9846 102.512 82.7366C102.276 82.4886 101.926 82.3646 101.462 82.3646L100.1 82.3646L100.1 85.0046ZM105.473 88.9766L105.473 83.1566L106.757 83.1566L106.757 88.9766L105.473 88.9766ZM106.427 86.4086C106.427 85.6566 106.509 85.0346 106.673 84.5426C106.837 84.0466 107.061 83.6786 107.345 83.4386C107.629 83.1946 107.953 83.0726 108.317 83.0726C108.425 83.0726 108.523 83.0806 108.611 83.0966C108.703 83.1086 108.795 83.1286 108.887 83.1566L108.851 84.4346C108.743 84.4066 108.627 84.3846 108.503 84.3686C108.383 84.3486 108.273 84.3386 108.173 84.3386C107.857 84.3386 107.593 84.4206 107.381 84.5846C107.173 84.7446 107.017 84.9786 106.913 85.2866C106.809 85.5946 106.757 85.9686 106.757 86.4086L106.427 86.4086ZM112.07 89.1386C111.546 89.1386 111.072 89.0246 110.648 88.7966C110.228 88.5686 109.894 88.2286 109.646 87.7766C109.398 87.3246 109.274 86.7606 109.274 86.0846C109.274 85.3966 109.398 84.8266 109.646 84.3746C109.894 83.9226 110.228 83.5846 110.648 83.3606C111.072 83.1326 111.546 83.0186 112.07 83.0186C112.594 83.0186 113.064 83.1326 113.48 83.3606C113.9 83.5846 114.232 83.9226 114.476 84.3746C114.724 84.8266 114.848 85.3966 114.848 86.0846C114.848 86.7606 114.724 87.3246 114.476 87.7766C114.232 88.2286 113.9 88.5686 113.48 88.7966C113.064 89.0246 112.594 89.1386 112.07 89.1386ZM112.034 88.0166C112.338 88.0166 112.604 87.9426 112.832 87.7946C113.064 87.6466 113.244 87.4286 113.372 87.1406C113.5 86.8526 113.564 86.5006 113.564 86.0846C113.564 85.4486 113.436 84.9646 113.18 84.6326C112.928 84.2966 112.572 84.1286 112.112 84.1286C111.804 84.1286 111.534 84.2026 111.302 84.3506C111.074 84.4986 110.896 84.7186 110.768 85.0106C110.64 85.3026 110.576 85.6606 110.576 86.0846C110.576 86.7086 110.704 87.1866 110.96 87.5186C111.216 87.8506 111.574 88.0166 112.034 88.0166ZM118.485 89.1386C118.005 89.1386 117.557 89.0126 117.141 88.7606C116.729 88.5086 116.395 88.1526 116.139 87.6926C115.887 87.2326 115.761 86.6926 115.761 86.0726C115.761 85.4166 115.887 84.8626 116.139 84.4106C116.395 83.9546 116.729 83.6086 117.141 83.3726C117.557 83.1366 118.005 83.0186 118.485 83.0186C118.849 83.0186 119.171 83.0766 119.451 83.1926C119.735 83.3086 119.977 83.4646 120.177 83.6606C120.377 83.8566 120.535 84.0766 120.651 84.3206C120.771 84.5606 120.851 84.8066 120.891 85.0586L119.589 85.1066C119.517 84.8306 119.385 84.6066 119.193 84.4346C119.005 84.2586 118.765 84.1706 118.473 84.1706C118.229 84.1706 117.999 84.2386 117.783 84.3746C117.571 84.5066 117.397 84.7126 117.261 84.9926C117.129 85.2726 117.063 85.6326 117.063 86.0726C117.063 86.4846 117.125 86.8326 117.249 87.1166C117.373 87.3966 117.541 87.6106 117.753 87.7586C117.969 87.9026 118.209 87.9746 118.473 87.9746C118.853 87.9746 119.133 87.8826 119.313 87.6986C119.497 87.5106 119.589 87.2586 119.589 86.9426L120.891 86.9426C120.891 87.3506 120.797 87.7206 120.609 88.0526C120.421 88.3846 120.147 88.6486 119.787 88.8446C119.431 89.0406 118.997 89.1386 118.485 89.1386ZM124.514 89.1386C124.018 89.1386 123.566 89.0106 123.158 88.7546C122.754 88.4986 122.43 88.1406 122.186 87.6806C121.946 87.2206 121.826 86.6866 121.826 86.0786C121.826 85.4386 121.946 84.8906 122.186 84.4346C122.426 83.9786 122.748 83.6286 123.152 83.3846C123.56 83.1406 124.014 83.0186 124.514 83.0186C124.974 83.0186 125.368 83.1106 125.696 83.2946C126.024 83.4786 126.288 83.7266 126.488 84.0386C126.692 84.3506 126.83 84.7046 126.902 85.1006C126.974 85.4926 126.982 85.8986 126.926 86.3186L122.852 86.3186L122.852 85.6046L126.032 85.6046L125.756 85.7846C125.768 85.5806 125.758 85.3766 125.726 85.1726C125.694 84.9686 125.632 84.7826 125.54 84.6146C125.452 84.4426 125.326 84.3046 125.162 84.2006C124.998 84.0966 124.79 84.0446 124.538 84.0446C124.226 84.0446 123.962 84.1226 123.746 84.2786C123.534 84.4346 123.374 84.6446 123.266 84.9086C123.158 85.1726 123.104 85.4666 123.104 85.7906L123.104 86.3066C123.104 86.6546 123.156 86.9626 123.26 87.2306C123.364 87.4986 123.52 87.7106 123.728 87.8666C123.936 88.0226 124.198 88.1006 124.514 88.1006C124.818 88.1006 125.07 88.0306 125.27 87.8906C125.474 87.7466 125.602 87.5326 125.654 87.2486L126.956 87.2486C126.896 87.6246 126.756 87.9546 126.536 88.2386C126.316 88.5226 126.034 88.7446 125.69 88.9046C125.346 89.0606 124.954 89.1386 124.514 89.1386ZM130.596 89.1386C130.04 89.1386 129.564 89.0606 129.168 88.9046C128.776 88.7486 128.474 88.5286 128.262 88.2446C128.054 87.9566 127.948 87.6146 127.944 87.2186L129.138 87.2186C129.154 87.5266 129.278 87.7546 129.51 87.9026C129.742 88.0466 130.056 88.1186 130.452 88.1186C130.668 88.1186 130.862 88.0866 131.034 88.0226C131.206 87.9546 131.34 87.8646 131.436 87.7526C131.536 87.6366 131.586 87.5086 131.586 87.3686C131.586 87.1886 131.52 87.0466 131.388 86.9426C131.26 86.8386 131.052 86.7446 130.764 86.6606L129.534 86.2346C129.07 86.0746 128.714 85.8606 128.466 85.5926C128.218 85.3246 128.094 85.0046 128.094 84.6326C128.094 84.1486 128.312 83.7586 128.748 83.4626C129.184 83.1666 129.764 83.0186 130.488 83.0186C131.224 83.0186 131.792 83.1766 132.192 83.4926C132.592 83.8086 132.798 84.2066 132.81 84.6866L131.592 84.6866C131.568 84.4786 131.466 84.3166 131.286 84.2006C131.106 84.0806 130.84 84.0206 130.488 84.0206C130.164 84.0206 129.91 84.0906 129.726 84.2306C129.546 84.3666 129.456 84.5226 129.456 84.6986C129.456 85.0066 129.72 85.2366 130.248 85.3886L131.562 85.8686C132.022 86.0206 132.378 86.2166 132.63 86.4566C132.882 86.6966 133.008 87.0006 133.008 87.3686C133.008 87.6726 132.906 87.9606 132.702 88.2326C132.502 88.5006 132.222 88.7186 131.862 88.8866C131.502 89.0546 131.08 89.1386 130.596 89.1386ZM136.684 89.1386C136.128 89.1386 135.652 89.0606 135.256 88.9046C134.864 88.7486 134.562 88.5286 134.35 88.2446C134.142 87.9566 134.036 87.6146 134.032 87.2186L135.226 87.2186C135.242 87.5266 135.366 87.7546 135.598 87.9026C135.83 88.0466 136.144 88.1186 136.54 88.1186C136.756 88.1186 136.95 88.0866 137.122 88.0226C137.294 87.9546 137.428 87.8646 137.524 87.7526C137.624 87.6366 137.674 87.5086 137.674 87.3686C137.674 87.1886 137.608 87.0466 137.476 86.9426C137.348 86.8386 137.14 86.7446 136.852 86.6606L135.622 86.2346C135.158 86.0746 134.802 85.8606 134.554 85.5926C134.306 85.3246 134.182 85.0046 134.182 84.6326C134.182 84.1486 134.4 83.7586 134.836 83.4626C135.272 83.1666 135.852 83.0186 136.576 83.0186C137.312 83.0186 137.88 83.1766 138.28 83.4926C138.68 83.8086 138.886 84.2066 138.898 84.6866L137.68 84.6866C137.656 84.4786 137.554 84.3166 137.374 84.2006C137.194 84.0806 136.928 84.0206 136.576 84.0206C136.252 84.0206 135.998 84.0906 135.814 84.2306C135.634 84.3666 135.544 84.5226 135.544 84.6986C135.544 85.0066 135.808 85.2366 136.336 85.3886L137.65 85.8686C138.11 86.0206 138.466 86.2166 138.718 86.4566C138.97 86.6966 139.096 87.0006 139.096 87.3686C139.096 87.6726 138.994 87.9606 138.79 88.2326C138.59 88.5006 138.31 88.7186 137.95 88.8866C137.59 89.0546 137.168 89.1386 136.684 89.1386ZM139.796 88.2206C139.796 87.9726 139.88 87.7646 140.048 87.5966C140.22 87.4246 140.438 87.3386 140.702 87.3386C140.966 87.3386 141.186 87.4246 141.362 87.5966C141.542 87.7646 141.632 87.9726 141.632 88.2206C141.632 88.4686 141.542 88.6746 141.362 88.8386C141.186 89.0026 140.966 89.0846 140.702 89.0846C140.438 89.0846 140.22 89.0026 140.048 88.8386C139.88 88.6706 139.796 88.4646 139.796 88.2206ZM145.588 88.9766L145.588 81.2606L150.496 81.2606L150.496 82.3646L146.872 82.3646L146.872 84.5486L150.28 84.5486L150.28 85.6586L146.872 85.6586L146.872 87.8546L150.496 87.8546L150.496 88.9766L145.588 88.9766ZM151.397 88.9766L153.635 86.0846L151.397 83.1566L152.969 83.1566L154.457 85.1126L155.873 83.1566L157.439 83.1566L155.207 86.0846L157.439 88.9766L155.873 88.9766L154.367 87.0206L152.969 88.9766L151.397 88.9766ZM160.733 89.1386C160.253 89.1386 159.805 89.0126 159.389 88.7606C158.977 88.5086 158.643 88.1526 158.387 87.6926C158.135 87.2326 158.009 86.6926 158.009 86.0726C158.009 85.4166 158.135 84.8626 158.387 84.4106C158.643 83.9546 158.977 83.6086 159.389 83.3726C159.805 83.1366 160.253 83.0186 160.733 83.0186C161.097 83.0186 161.419 83.0766 161.699 83.1926C161.983 83.3086 162.225 83.4646 162.425 83.6606C162.625 83.8566 162.783 84.0766 162.899 84.3206C163.019 84.5606 163.099 84.8066 163.139 85.0586L161.837 85.1066C161.765 84.8306 161.633 84.6066 161.441 84.4346C161.253 84.2586 161.013 84.1706 160.721 84.1706C160.477 84.1706 160.247 84.2386 160.031 84.3746C159.819 84.5066 159.645 84.7126 159.509 84.9926C159.377 85.2726 159.311 85.6326 159.311 86.0726C159.311 86.4846 159.373 86.8326 159.497 87.1166C159.621 87.3966 159.789 87.6106 160.001 87.7586C160.217 87.9026 160.457 87.9746 160.721 87.9746C161.101 87.9746 161.381 87.8826 161.561 87.6986C161.745 87.5106 161.837 87.2586 161.837 86.9426L163.139 86.9426C163.139 87.3506 163.045 87.7206 162.857 88.0526C162.669 88.3846 162.395 88.6486 162.035 88.8446C161.679 89.0406 161.245 89.1386 160.733 89.1386ZM166.761 89.1386C166.265 89.1386 165.813 89.0106 165.405 88.7546C165.001 88.4986 164.677 88.1406 164.433 87.6806C164.193 87.2206 164.073 86.6866 164.073 86.0786C164.073 85.4386 164.193 84.8906 164.433 84.4346C164.673 83.9786 164.995 83.6286 165.399 83.3846C165.807 83.1406 166.261 83.0186 166.761 83.0186C167.221 83.0186 167.615 83.1106 167.943 83.2946C168.271 83.4786 168.535 83.7266 168.735 84.0386C168.939 84.3506 169.077 84.7046 169.149 85.1006C169.221 85.4926 169.229 85.8986 169.173 86.3186L165.099 86.3186L165.099 85.6046L168.279 85.6046L168.003 85.7846C168.015 85.5806 168.005 85.3766 167.973 85.1726C167.941 84.9686 167.879 84.7826 167.787 84.6146C167.699 84.4426 167.573 84.3046 167.409 84.2006C167.245 84.0966 167.037 84.0446 166.785 84.0446C166.473 84.0446 166.209 84.1226 165.993 84.2786C165.781 84.4346 165.621 84.6446 165.513 84.9086C165.405 85.1726 165.351 85.4666 165.351 85.7906L165.351 86.3066C165.351 86.6546 165.403 86.9626 165.507 87.2306C165.611 87.4986 165.767 87.7106 165.975 87.8666C166.183 88.0226 166.445 88.1006 166.761 88.1006C167.065 88.1006 167.317 88.0306 167.517 87.8906C167.721 87.7466 167.849 87.5326 167.901 87.2486L169.203 87.2486C169.143 87.6246 169.003 87.9546 168.783 88.2386C168.563 88.5226 168.281 88.7446 167.937 88.9046C167.593 89.0606 167.201 89.1386 166.761 89.1386ZM170.702 88.9766L170.702 80.7566L171.986 80.7566L171.986 88.9766L170.702 88.9766ZM174.036 88.9766L174.036 80.7566L175.32 80.7566L175.32 88.9766L174.036 88.9766ZM179.495 89.1386C178.999 89.1386 178.547 89.0106 178.139 88.7546C177.735 88.4986 177.411 88.1406 177.167 87.6806C176.927 87.2206 176.807 86.6866 176.807 86.0786C176.807 85.4386 176.927 84.8906 177.167 84.4346C177.407 83.9786 177.729 83.6286 178.133 83.3846C178.541 83.1406 178.995 83.0186 179.495 83.0186C179.955 83.0186 180.349 83.1106 180.677 83.2946C181.005 83.4786 181.269 83.7266 181.469 84.0386C181.673 84.3506 181.811 84.7046 181.883 85.1006C181.955 85.4926 181.963 85.8986 181.907 86.3186L177.833 86.3186L177.833 85.6046L181.013 85.6046L180.737 85.7846C180.749 85.5806 180.739 85.3766 180.707 85.1726C180.675 84.9686 180.613 84.7826 180.521 84.6146C180.433 84.4426 180.307 84.3046 180.143 84.2006C179.979 84.0966 179.771 84.0446 179.519 84.0446C179.207 84.0446 178.943 84.1226 178.727 84.2786C178.515 84.4346 178.355 84.6446 178.247 84.9086C178.139 85.1726 178.085 85.4666 178.085 85.7906L178.085 86.3066C178.085 86.6546 178.137 86.9626 178.241 87.2306C178.345 87.4986 178.501 87.7106 178.709 87.8666C178.917 88.0226 179.179 88.1006 179.495 88.1006C179.799 88.1006 180.051 88.0306 180.251 87.8906C180.455 87.7466 180.583 87.5326 180.635 87.2486L181.937 87.2486C181.877 87.6246 181.737 87.9546 181.517 88.2386C181.297 88.5226 181.015 88.7446 180.671 88.9046C180.327 89.0606 179.935 89.1386 179.495 89.1386ZM187.455 88.9766L187.455 85.5806C187.455 85.1166 187.343 84.7666 187.119 84.5306C186.899 84.2906 186.605 84.1706 186.237 84.1706C185.937 84.1706 185.673 84.2526 185.445 84.4166C185.217 84.5806 185.039 84.8246 184.911 85.1486C184.783 85.4726 184.719 85.8706 184.719 86.3426L184.281 86.3426C184.281 85.6106 184.373 84.9986 184.557 84.5066C184.745 84.0146 185.009 83.6446 185.349 83.3966C185.693 83.1446 186.099 83.0186 186.567 83.0186C187.039 83.0186 187.435 83.1246 187.755 83.3366C188.079 83.5486 188.323 83.8466 188.487 84.2306C188.655 84.6146 188.739 85.0646 188.739 85.5806L188.739 88.9766L187.455 88.9766ZM183.435 88.9766L183.435 83.1806L184.557 83.1806L184.719 84.3806L184.719 88.9766L183.435 88.9766ZM192.762 89.1386C192.282 89.1386 191.834 89.0126 191.418 88.7606C191.006 88.5086 190.672 88.1526 190.416 87.6926C190.164 87.2326 190.038 86.6926 190.038 86.0726C190.038 85.4166 190.164 84.8626 190.416 84.4106C190.672 83.9546 191.006 83.6086 191.418 83.3726C191.834 83.1366 192.282 83.0186 192.762 83.0186C193.126 83.0186 193.448 83.0766 193.728 83.1926C194.012 83.3086 194.254 83.4646 194.454 83.6606C194.654 83.8566 194.812 84.0766 194.928 84.3206C195.048 84.5606 195.128 84.8066 195.168 85.0586L193.866 85.1066C193.794 84.8306 193.662 84.6066 193.47 84.4346C193.282 84.2586 193.042 84.1706 192.75 84.1706C192.506 84.1706 192.276 84.2386 192.06 84.3746C191.848 84.5066 191.674 84.7126 191.538 84.9926C191.406 85.2726 191.34 85.6326 191.34 86.0726C191.34 86.4846 191.402 86.8326 191.526 87.1166C191.65 87.3966 191.818 87.6106 192.03 87.7586C192.246 87.9026 192.486 87.9746 192.75 87.9746C193.13 87.9746 193.41 87.8826 193.59 87.6986C193.774 87.5106 193.866 87.2586 193.866 86.9426L195.168 86.9426C195.168 87.3506 195.074 87.7206 194.886 88.0526C194.698 88.3846 194.424 88.6486 194.064 88.8446C193.708 89.0406 193.274 89.1386 192.762 89.1386ZM198.79 89.1386C198.294 89.1386 197.842 89.0106 197.434 88.7546C197.03 88.4986 196.706 88.1406 196.462 87.6806C196.222 87.2206 196.102 86.6866 196.102 86.0786C196.102 85.4386 196.222 84.8906 196.462 84.4346C196.702 83.9786 197.024 83.6286 197.428 83.3846C197.836 83.1406 198.29 83.0186 198.79 83.0186C199.25 83.0186 199.644 83.1106 199.972 83.2946C200.3 83.4786 200.564 83.7266 200.764 84.0386C200.968 84.3506 201.106 84.7046 201.178 85.1006C201.25 85.4926 201.258 85.8986 201.202 86.3186L197.128 86.3186L197.128 85.6046L200.308 85.6046L200.032 85.7846C200.044 85.5806 200.034 85.3766 200.002 85.1726C199.97 84.9686 199.908 84.7826 199.816 84.6146C199.728 84.4426 199.602 84.3046 199.438 84.2006C199.274 84.0966 199.066 84.0446 198.814 84.0446C198.502 84.0446 198.238 84.1226 198.022 84.2786C197.81 84.4346 197.65 84.6446 197.542 84.9086C197.434 85.1726 197.38 85.4666 197.38 85.7906L197.38 86.3066C197.38 86.6546 197.432 86.9626 197.536 87.2306C197.64 87.4986 197.796 87.7106 198.004 87.8666C198.212 88.0226 198.474 88.1006 198.79 88.1006C199.094 88.1006 199.346 88.0306 199.546 87.8906C199.75 87.7466 199.878 87.5326 199.93 87.2486L201.232 87.2486C201.172 87.6246 201.032 87.9546 200.812 88.2386C200.592 88.5226 200.31 88.7446 199.966 88.9046C199.622 89.0606 199.23 89.1386 198.79 89.1386ZM205.479 88.9766L205.479 81.2606L206.763 81.2606L206.763 88.9766L205.479 88.9766ZM212.833 88.9766L212.833 85.5806C212.833 85.1166 212.721 84.7666 212.497 84.5306C212.277 84.2906 211.983 84.1706 211.615 84.1706C211.315 84.1706 211.051 84.2526 210.823 84.4166C210.595 84.5806 210.417 84.8246 210.289 85.1486C210.161 85.4726 210.097 85.8706 210.097 86.3426L209.659 86.3426C209.659 85.6106 209.751 84.9986 209.935 84.5066C210.123 84.0146 210.387 83.6446 210.727 83.3966C211.071 83.1446 211.477 83.0186 211.945 83.0186C212.417 83.0186 212.813 83.1246 213.133 83.3366C213.457 83.5486 213.701 83.8466 213.865 84.2306C214.033 84.6146 214.117 85.0646 214.117 85.5806L214.117 88.9766L212.833 88.9766ZM208.813 88.9766L208.813 83.1806L209.935 83.1806L210.097 84.3806L210.097 88.9766L208.813 88.9766ZM1.26472 104.977L1.26472 97.2606L6.17272 97.2606L6.17272 98.3646L2.54872 98.3646L2.54872 100.549L5.95672 100.549L5.95672 101.659L2.54872 101.659L2.54872 103.855L6.17272 103.855L6.17272 104.977L1.26472 104.977ZM7.00794 99.1806L8.48394 99.1806L9.98994 103.879L9.87594 103.879L11.3819 99.1806L12.8579 99.1806L10.6499 104.977L9.21594 104.977L7.00794 99.1806ZM16.0457 105.139C15.5497 105.139 15.0977 105.011 14.6897 104.755C14.2857 104.499 13.9617 104.141 13.7177 103.681C13.4777 103.221 13.3577 102.687 13.3577 102.079C13.3577 101.439 13.4777 100.891 13.7177 100.435C13.9577 99.9786 14.2797 99.6286 14.6837 99.3846C15.0917 99.1406 15.5457 99.0186 16.0457 99.0186C16.5057 99.0186 16.8997 99.1106 17.2277 99.2946C17.5557 99.4786 17.8197 99.7266 18.0197 100.039C18.2237 100.351 18.3617 100.705 18.4337 101.101C18.5057 101.493 18.5137 101.899 18.4577 102.319L14.3837 102.319L14.3837 101.605L17.5637 101.605L17.2877 101.785C17.2997 101.581 17.2897 101.377 17.2577 101.173C17.2257 100.969 17.1637 100.783 17.0717 100.615C16.9837 100.443 16.8577 100.305 16.6937 100.201C16.5297 100.097 16.3217 100.045 16.0697 100.045C15.7577 100.045 15.4937 100.123 15.2777 100.279C15.0657 100.435 14.9057 100.645 14.7977 100.909C14.6897 101.173 14.6357 101.467 14.6357 101.791L14.6357 102.307C14.6357 102.655 14.6877 102.963 14.7917 103.231C14.8957 103.499 15.0517 103.711 15.2597 103.867C15.4677 104.023 15.7297 104.101 16.0457 104.101C16.3497 104.101 16.6017 104.031 16.8017 103.891C17.0057 103.747 17.1337 103.533 17.1857 103.249L18.4877 103.249C18.4277 103.625 18.2877 103.955 18.0677 104.239C17.8477 104.523 17.5657 104.745 17.2217 104.905C16.8777 105.061 16.4857 105.139 16.0457 105.139ZM19.9864 104.977L19.9864 99.1566L21.2704 99.1566L21.2704 104.977L19.9864 104.977ZM20.9404 102.409C20.9404 101.657 21.0224 101.035 21.1864 100.543C21.3504 100.047 21.5744 99.6786 21.8584 99.4386C22.1424 99.1946 22.4664 99.0726 22.8304 99.0726C22.9384 99.0726 23.0364 99.0806 23.1244 99.0966C23.2164 99.1086 23.3084 99.1286 23.4004 99.1566L23.3644 100.435C23.2564 100.407 23.1404 100.385 23.0164 100.369C22.8964 100.349 22.7864 100.339 22.6864 100.339C22.3704 100.339 22.1064 100.421 21.8944 100.585C21.6864 100.745 21.5304 100.979 21.4264 101.287C21.3224 101.595 21.2704 101.969 21.2704 102.409L20.9404 102.409ZM23.4519 99.1806L24.9039 99.1806L26.5419 103.855L26.2959 103.855L27.6639 99.1806L28.9719 99.1806L26.7579 106.057C26.5419 106.717 26.2719 107.201 25.9479 107.509C25.6239 107.817 25.2239 107.971 24.7479 107.971C24.4799 107.971 24.2179 107.939 23.9619 107.875C23.7099 107.811 23.4539 107.713 23.1939 107.581L23.1939 106.435C23.4099 106.583 23.6199 106.689 23.8239 106.753C24.0279 106.821 24.2359 106.855 24.4479 106.855C24.6479 106.855 24.8219 106.797 24.9699 106.681C25.1179 106.565 25.2439 106.407 25.3479 106.207C25.4559 106.011 25.5459 105.791 25.6179 105.547L25.7919 104.977L23.4519 99.1806ZM32.7481 104.977L32.7481 97.2606L35.4061 97.2606C36.2701 97.2606 36.9401 97.4746 37.4161 97.9026C37.8921 98.3306 38.1301 98.9286 38.1301 99.6966C38.1301 100.461 37.8921 101.057 37.4161 101.485C36.9401 101.913 36.2701 102.127 35.4061 102.127L34.0441 102.127L34.0441 104.977L32.7481 104.977ZM34.0441 101.005L35.4061 101.005C35.8701 101.005 36.2201 100.885 36.4561 100.645C36.6921 100.401 36.8101 100.085 36.8101 99.6966C36.8101 99.3046 36.6921 98.9846 36.4561 98.7366C36.2201 98.4886 35.8701 98.3646 35.4061 98.3646L34.0441 98.3646L34.0441 101.005ZM43.083 104.977L42.921 103.603L42.921 101.233C42.921 100.793 42.831 100.471 42.651 100.267C42.471 100.063 42.177 99.9606 41.769 99.9606C41.533 99.9606 41.327 99.9946 41.151 100.063C40.975 100.131 40.837 100.233 40.737 100.369C40.641 100.501 40.593 100.665 40.593 100.861L39.183 100.861C39.183 100.425 39.287 100.073 39.495 99.8046C39.707 99.5326 40.005 99.3346 40.389 99.2106C40.777 99.0826 41.237 99.0186 41.769 99.0186C42.253 99.0186 42.677 99.0986 43.041 99.2586C43.409 99.4146 43.695 99.6586 43.899 99.9906C44.103 100.323 44.205 100.751 44.205 101.275L44.205 104.977L43.083 104.977ZM41.163 105.139C40.671 105.139 40.261 105.053 39.933 104.881C39.609 104.709 39.365 104.483 39.201 104.203C39.037 103.923 38.955 103.621 38.955 103.297C38.955 102.925 39.051 102.615 39.243 102.367C39.439 102.119 39.711 101.935 40.059 101.815C40.411 101.691 40.821 101.629 41.289 101.629C41.601 101.629 41.899 101.655 42.183 101.707C42.471 101.755 42.757 101.823 43.041 101.911L43.041 102.673C42.813 102.593 42.563 102.531 42.291 102.487C42.023 102.443 41.771 102.421 41.535 102.421C41.187 102.421 40.897 102.489 40.665 102.625C40.437 102.757 40.323 102.981 40.323 103.297C40.323 103.533 40.415 103.735 40.599 103.903C40.783 104.071 41.075 104.155 41.475 104.155C41.771 104.155 42.027 104.089 42.243 103.957C42.459 103.821 42.625 103.653 42.741 103.453C42.861 103.253 42.921 103.055 42.921 102.859L43.227 102.859C43.227 103.267 43.147 103.645 42.987 103.993C42.831 104.337 42.599 104.615 42.291 104.827C41.987 105.035 41.611 105.139 41.163 105.139ZM46.0794 104.977L46.0794 99.1566L47.3634 99.1566L47.3634 104.977L46.0794 104.977ZM47.0334 102.409C47.0334 101.657 47.1154 101.035 47.2794 100.543C47.4434 100.047 47.6674 99.6786 47.9514 99.4386C48.2354 99.1946 48.5594 99.0726 48.9234 99.0726C49.0314 99.0726 49.1294 99.0806 49.2174 99.0966C49.3094 99.1086 49.4014 99.1286 49.4934 99.1566L49.4574 100.435C49.3494 100.407 49.2334 100.385 49.1094 100.369C48.9894 100.349 48.8794 100.339 48.7794 100.339C48.4634 100.339 48.1994 100.421 47.9874 100.585C47.7794 100.745 47.6234 100.979 47.5194 101.287C47.4154 101.595 47.3634 101.969 47.3634 102.409L47.0334 102.409ZM52.3588 105.139C52.0228 105.139 51.7168 105.077 51.4408 104.953C51.1688 104.825 50.9508 104.633 50.7868 104.377C50.6228 104.117 50.5408 103.791 50.5408 103.399L50.5408 97.6206L51.8188 97.6206L51.8188 103.357C51.8188 103.865 52.0608 104.119 52.5448 104.119C52.6928 104.119 52.8388 104.103 52.9828 104.071C53.1268 104.039 53.2888 103.989 53.4688 103.921L53.6548 104.827C53.4388 104.915 53.2248 104.989 53.0128 105.049C52.8048 105.109 52.5868 105.139 52.3588 105.139ZM49.6948 100.039L49.6948 99.1806L53.4688 99.1806L53.4688 100.039L49.6948 100.039ZM54.0466 104.221C54.0466 103.973 54.1306 103.765 54.2986 103.597C54.4706 103.425 54.6886 103.339 54.9526 103.339C55.2166 103.339 55.4366 103.425 55.6126 103.597C55.7926 103.765 55.8826 103.973 55.8826 104.221C55.8826 104.469 55.7926 104.675 55.6126 104.839C55.4366 105.003 55.2166 105.085 54.9526 105.085C54.6886 105.085 54.4706 105.003 54.2986 104.839C54.1306 104.671 54.0466 104.465 54.0466 104.221Z" fill="black"/>
<path d="M10.3906 22L1.67188 22L1.67188 6.08594L9.62891 6.08594C12.1953 6.08594 14.4453 7.59766 14.4453 10.2344C14.4453 11.8281 13.7305 13.0352 12.3125 13.8437C14.2695 14.5 15.2422 15.9531 15.2422 17.6523C15.2422 20.3828 13.0859 22 10.3906 22ZM9.38281 15.5195L5.52734 15.5195L5.52734 18.7891L9.38281 18.7891C10.4141 18.7891 11.0586 18.0742 11.0586 17.1719C11.0586 16.1875 10.4258 15.5195 9.38281 15.5195ZM8.76172 9.30859L5.52734 9.30859L5.52734 12.5664L8.87891 12.5664C9.86328 12.5664 10.4375 11.8867 10.4375 10.9375C10.4375 10.0117 9.80469 9.30859 8.76172 9.30859ZM29.3867 18.7656L29.3867 22L17.2578 22L17.2578 6.08594L29.2695 6.08594L29.2695 9.33203L21.1133 9.33203L21.1133 12.2852L28.3438 12.2852L28.3438 15.5195L21.1133 15.5195L21.1133 18.7656L29.3867 18.7656ZM37.0508 5.85156C39.3594 5.85156 41.1289 6.33203 42.4063 6.96484L42.0898 10.2578C41.5156 9.88281 39.1133 9.17969 37.2148 9.17969C35.8555 9.17969 34.7539 9.53125 34.7539 10.6094C34.7539 11.5937 35.6914 11.8398 36.6055 12.0977L38.8789 12.7539C41.8086 13.5977 43.2617 14.8047 43.2617 17.3125C43.2617 20.2305 40.8008 22.2344 36.9219 22.2344C34.5781 22.2344 31.9531 21.5781 30.9102 20.9922L31.2148 17.6055C31.6133 18.0391 34.4609 18.8594 36.6523 18.8594C38.0938 18.8594 39.3008 18.5078 39.3008 17.4414C39.3008 16.7031 38.7969 16.3281 37.6367 16.0234L35.1523 15.3906C33.0313 14.6992 30.8047 13.6562 30.8047 10.7969C30.8047 7.83203 33.2891 5.85156 37.0508 5.85156ZM48.6523 22L48.6523 9.40234L43.9414 9.40234L43.9414 6.08594L57.1953 6.08594L57.1953 9.40234L52.4961 9.40234L52.4961 22L48.6523 22ZM57.3125 14.0195C57.3125 9.20312 60.7695 5.85156 65.7969 5.85156C70.8008 5.85156 74.2344 9.21484 74.2344 14.0312C74.2344 18.8711 70.8008 22.2344 65.7969 22.2344C60.7695 22.2344 57.3125 18.8594 57.3125 14.0195ZM61.2383 14.0312C61.2383 16.7852 63.1016 18.6836 65.832 18.6836C68.5156 18.6836 70.3086 16.7852 70.3086 14.0312C70.3086 11.3008 68.5156 9.42578 65.832 9.42578C63.1016 9.42578 61.2383 11.3008 61.2383 14.0312ZM76.25 6.08594L79.5078 6.08594L85.1328 12.7539L90.7344 6.08594L93.9922 6.08594L93.9922 22L90.1367 22L90.1367 12.0742L85.3789 17.5234L84.9102 17.5234L80.1055 12.0742L80.1055 22L76.25 22L76.25 6.08594ZM108.77 18.7656L108.77 22L96.6406 22L96.6406 6.08594L108.652 6.08594L108.652 9.33203L100.496 9.33203L100.496 12.2852L107.727 12.2852L107.727 15.5195L100.496 15.5195L100.496 18.7656L108.77 18.7656ZM109.695 14.0547C109.695 8.60547 114.172 5.85156 118.93 5.85156C120.629 5.85156 122.363 6.21484 123.945 6.92969L123.699 10.2812C122.516 9.69531 120.992 9.35547 119.492 9.35547C116.516 9.35547 113.645 10.6562 113.645 14.0078C113.645 16.9844 115.953 18.8477 119.07 18.8477C120.77 18.8477 122.352 18.4727 123.711 17.6172L124.238 20.8867C122.422 21.7891 120.547 22.2344 118.473 22.2344C113.691 22.2344 109.695 19.0469 109.695 14.0547ZM129.91 15.4961L129.91 22L126.055 22L126.055 6.08594L129.91 6.08594L129.91 12.2617L136.801 12.2617L136.801 6.08594L140.656 6.08594L140.656 22L136.801 22L136.801 15.4961L129.91 15.4961Z" fill="#10314E"/>
</svg>
